<svg width="16" height="31" viewBox="0 0 16 31" fill="none" xmlns="http://www.w3.org/2000/svg">
<g clip-path="url(#clip0_4_261)">
<path d="M4.93434 31C4.57448 30.8478 4.45683 30.5579 4.45683 30.1592C4.46375 26.0713 4.45683 21.9834 4.45683 17.8955C4.45683 17.7795 4.45683 17.6563 4.45683 17.4968C4.33226 17.4968 4.22846 17.4968 4.12465 17.4968C3.00354 17.4968 1.88936 17.4968 0.768251 17.4968C0.200777 17.4968 -0.00683594 17.2866 -0.00683594 16.7068C-0.00683594 15.1122 -0.00683594 13.5177 -0.00683594 11.9231C-0.00683594 11.365 0.214617 11.1403 0.75441 11.1403C1.87552 11.1403 2.9897 11.1403 4.11081 11.1403C4.21462 11.1403 4.31842 11.1403 4.45683 11.1403C4.45683 11.0026 4.45683 10.8939 4.45683 10.7924C4.45683 9.56021 4.42915 8.32803 4.47759 7.09586C4.5468 5.32008 5.03815 3.68202 6.18002 2.31938C7.24576 1.05097 8.59524 0.282675 10.1662 0.137713C11.8894 -0.0217442 13.6264 0.0289923 15.3565 0C15.7579 0 15.9932 0.246434 15.9932 0.666823C16.0001 2.21791 16.0001 3.77624 15.9932 5.32733C15.9932 5.76946 15.744 5.98691 15.3011 5.99415C14.2907 6.00865 13.2804 6.0014 12.27 6.04489C11.7371 6.06664 11.225 6.22609 10.962 6.77695C10.8305 7.05237 10.7406 7.37129 10.7336 7.66846C10.706 8.80641 10.7198 9.9516 10.7198 11.133H11.0243C12.353 11.133 13.6817 11.133 15.0174 11.133C15.6125 11.133 15.8202 11.3505 15.8202 11.9666C15.8202 13.5394 15.8202 15.1122 15.8202 16.6923C15.8202 17.2794 15.6125 17.4968 15.052 17.4968C13.7233 17.4968 12.3945 17.4968 11.0589 17.4968C10.9551 17.4968 10.8513 17.4968 10.7129 17.4968V17.8737C10.7129 21.9544 10.7129 26.0278 10.7129 30.1085C10.7129 30.5071 10.616 30.8188 10.2561 30.9928H4.93434V31Z" fill="black"/>
</g>
<defs>
<clipPath id="clip0_4_261">
<rect width="16" height="31" fill="white"/>
</clipPath>
</defs>
</svg>
