<svg width="30" height="30" viewBox="0 0 30 30" fill="none" xmlns="http://www.w3.org/2000/svg">
<g clip-path="url(#clip0_4_257)">
<path d="M7.67176 0C12.5525 0 17.4332 0 22.3068 0C22.3998 0.0143198 22.4928 0.0429594 22.593 0.0501193C23.416 0.143198 24.2176 0.322196 24.9547 0.673031C28.1751 2.19809 29.9141 4.74702 29.9642 8.31265C30.0286 12.7661 29.9857 17.2196 29.9785 21.6659C29.9785 23.3914 29.5134 24.9881 28.5115 26.3986C26.8154 28.7828 24.4752 29.9785 21.5482 29.9857C17.1756 30 12.803 29.9928 8.43034 29.9857C7.86498 29.9857 7.29246 29.957 6.74141 29.8353C3.34924 29.0835 1.17366 27.0215 0.243321 23.6706C0.12166 23.2339 0.0787214 22.7757 0 22.3246C0 17.4415 0 12.5585 0 7.67542C0.0500954 7.36754 0.0787214 7.05967 0.150286 6.75895C0.908874 3.35799 2.96994 1.18138 6.32634 0.243437C6.76288 0.121718 7.2209 0.0787589 7.67176 0ZM2.65506 14.9642C2.65506 17.1408 2.65506 19.3174 2.65506 21.494C2.65506 22.1814 2.72662 22.8544 2.95563 23.506C3.8001 25.8831 5.84685 27.3222 8.42319 27.3294C12.7958 27.3365 17.1684 27.3437 21.5339 27.315C22.1851 27.315 22.8721 27.222 23.4876 27.0143C25.885 26.2052 27.3163 24.1289 27.3163 21.537C27.3163 17.1766 27.3306 12.8091 27.302 8.44869C27.302 7.79714 27.209 7.10978 27.0014 6.49403C26.1999 4.10979 24.1317 2.66348 21.5625 2.65632C17.1684 2.642 12.7815 2.64916 8.38741 2.65632C6.43368 2.65632 4.8521 3.44391 3.69275 5.02625C2.94847 6.04296 2.64074 7.21002 2.6479 8.46301C2.6479 10.6325 2.6479 12.7947 2.6479 14.9642H2.65506Z" fill="black"/>
<path d="M22.7148 15.0072C22.7005 19.2602 19.201 22.7471 14.9715 22.7256C10.7134 22.7041 7.22816 19.1957 7.26394 14.9714C7.29973 10.7113 10.7635 7.26019 14.993 7.26735C19.2439 7.26735 22.7291 10.7685 22.7148 15.0072ZM20.0526 14.9929C20.0526 12.2005 17.7768 9.93083 14.9858 9.93083C12.1948 9.93083 9.92616 12.2077 9.92616 15C9.92616 17.7924 12.2019 20.0621 14.993 20.0621C17.784 20.0621 20.0526 17.7852 20.0526 14.9929Z" fill="black"/>
<path d="M23.0295 8.90691C21.9703 8.90691 21.0901 8.02625 21.0901 6.96658C21.0901 5.89975 21.9775 5.01193 23.051 5.01909C24.1173 5.02625 24.9832 5.89259 24.9904 6.95942C24.9904 8.02625 24.103 8.91407 23.0295 8.90691Z" fill="black"/>
</g>
<defs>
<clipPath id="clip0_4_257">
<rect width="30" height="30" fill="white"/>
</clipPath>
</defs>
</svg>
