<svg width="167" height="76" viewBox="0 0 167 76" fill="none" xmlns="http://www.w3.org/2000/svg">
<g clip-path="url(#clip0_1_12)">
<path d="M141.644 7.65265C141.644 9.88028 142.235 11.4263 143.257 11.4263C144.485 11.4263 145.853 9.26519 147.371 6.89348C148.488 5.15349 149.995 4.41094 149.995 2.88152C149.995 1.08611 148.605 -0.0110779 147.081 -0.0110779C144.172 -0.0110779 141.649 5.41393 141.649 7.64157L141.644 7.65265Z" fill="white"/>
<path d="M30.0851 54.8984C28.2875 54.8984 27.238 54.0839 27.238 51.4129C27.238 48.742 37.9176 25.9558 35.9414 24.2879C34.9197 23.429 25.4627 30.9043 18.1438 40.4909C11.2883 49.4679 4.04756 67.3665 14.4816 67.3665C20.4718 67.3665 28.5332 63.6871 31.3636 63.6871C33.0216 63.6871 33.8088 64.8895 33.8088 66.8678C33.8088 68.8461 27.7404 73.9331 15.7935 75.6454C-23.8155 81.3253 21.8005 17.2281 36.5555 17.2281C38.0404 17.2281 39.3747 17.5385 40.5024 18.2976C45.27 21.495 42.7634 29.325 39.866 36.9277C36.3768 46.0821 33.7809 54.8984 30.0907 54.8984H30.0851Z" fill="white"/>
<path d="M55.7319 9.63646C53.3592 10.0521 49.7361 14.2469 45.9622 28.2998C41.4849 43.6162 33.7082 66.9066 39.9441 66.9066C43.6845 66.9066 44.2707 62.4901 49.7026 52.6763C53.8784 44.7854 58.3446 38.0194 59.0257 38.4461C60.332 39.2662 55.1401 46.8745 55.1401 55.4415C55.0787 60.4675 60.84 64.6623 62.4702 63.0941C64.078 61.5536 60.7786 60.595 64.2064 46.0821C66.5288 36.2517 69.6941 30.9652 65.5071 29.1476C58.914 26.1165 51.1429 43.6771 49.8701 43.2726C48.5972 42.8681 52.533 30.1839 55.8435 20.3923C58.2664 13.2328 59.0647 9.05461 55.7263 9.63646H55.7319Z" fill="white"/>
<path d="M82.7518 26.377C75.673 26.377 69.4427 36.6784 67.8014 46.8468C66.6514 54.4163 72.0331 58.4505 76.4657 58.4505C82.1601 58.4505 86.9612 52.5877 87.7483 49.6175C88.1224 48.1934 87.2012 47.3455 86.04 47.7611C84.89 48.1712 82.9249 51.7676 78.1908 51.7676C76.6779 51.7676 75.5167 50.3711 75.5725 47.6115C75.6674 42.9956 80.9598 30.9985 84.3764 32.4337C86.7993 33.4533 75.6172 48.3541 72.5858 48.3541C72.5858 49.9167 73.2166 50.6537 74.3778 50.6537C79.8712 50.6537 88.4406 38.6788 88.4406 32.5002C88.4406 28.721 86.5257 26.3659 82.7574 26.3659L82.7518 26.377Z" fill="white"/>
<path d="M105.903 21.7887C99.0646 21.7887 90.6068 34.8608 89.3116 43.8323C87.9997 52.9312 95.5587 55.3251 97.5014 55.2697C103.157 55.1367 106.769 49.5011 106.802 47.7057C106.819 46.9188 106.445 46.6307 105.663 46.6252C104.284 46.6252 102.699 49.4679 99.5 49.4679C98.0318 49.4956 97.4177 47.9218 97.4679 44.4252C97.5349 39.6763 104.363 27.5296 107.299 28.7819C109.264 29.6187 99.0422 43.9653 95.8713 44.054C95.8713 44.054 96.6361 46.3315 97.7303 46.3038C105.161 46.0987 111.48 32.8438 111.787 28.732C112 25.8838 111.815 21.7832 105.909 21.7776L105.903 21.7887Z" fill="white"/>
<path d="M113.702 56.0898C110.045 55.4138 112.563 45.0902 115.154 31.9682C117.738 18.8518 117.415 13.388 121.529 11.5704C126.967 9.17099 125.526 13.3215 121.278 34.9495C118.196 50.626 117.364 56.7548 113.708 56.0843L113.702 56.0898Z" fill="white"/>
<path d="M114.635 16.5078C114.635 13.6263 123.115 7.69698 130.964 7.73577C134.542 7.30354 139.293 10.5342 139.293 15.3607C139.293 27.8676 123.572 39.1997 123.572 40.6017C123.572 42.0037 133.577 48.814 134.006 51.3187C134.358 53.3746 133.364 54.7377 131.327 54.1947C130.082 53.8622 115.751 48.0825 115.751 41.2057C115.751 37.8809 121.016 33.0599 125.253 27.7789C129.786 22.1378 134.174 15.4327 132.957 14.2746C130.595 12.0303 119.402 20.4311 118.068 20.4311C116.734 20.4311 114.635 18.7964 114.635 16.5133V16.5078Z" fill="white"/>
<path d="M134.04 43.2505C130.556 38.2854 134.414 35.2986 137.97 38.773C141.526 42.2475 150.531 48.5646 153.847 44.4751C155.661 42.2863 140.733 34.8719 143.033 23.3126C144.736 14.7567 159.614 -2.35509 165.576 3.5631C168.747 6.71061 165.934 14.0862 163.684 19.6054C161.68 24.5151 159.313 26.9311 156.415 27.79C154.394 28.3275 153.01 26.9311 153.445 24.6979C153.819 23.0909 156.119 20.9298 157.671 18.0427C159.486 14.668 160.34 11.2435 159.72 10.8168C158.576 10.0299 149.928 21.5393 149.928 25.3352C149.928 35.1822 165.66 38.8451 159.781 48.5314C152.457 59.4756 135.854 45.8383 134.04 43.2505Z" fill="white"/>
</g>
<defs>
<clipPath id="clip0_1_12">
<rect width="167" height="76" fill="white"/>
</clipPath>
</defs>
</svg>
