<svg width="811" height="222" viewBox="0 0 811 222" fill="none" xmlns="http://www.w3.org/2000/svg">
<g clip-path="url(#clip0_6_264)">
<path d="M108.718 10.0505V158.474C108.718 163.395 106.257 165.848 101.343 165.848H77.5968C72.6755 165.848 69.3772 163.776 67.6869 159.626L41.4124 94.4025V158.474C41.4124 163.395 38.9518 165.848 34.0379 165.848H7.74852C2.8272 165.848 0.374023 163.395 0.374023 158.474V10.0505C0.374023 5.13739 2.8272 2.67712 7.74852 2.67712H31.495C36.4088 2.67712 39.7146 4.74854 41.4049 8.89884L67.6794 74.1221V10.0505C67.6794 5.13739 70.14 2.67712 75.0539 2.67712H101.328C106.242 2.67712 108.703 5.13739 108.703 10.0505H108.718Z" stroke="black" stroke-miterlimit="10"/>
<path d="M142.83 3.82875C149.128 1.52552 157.123 0.373901 166.801 0.373901C176.479 0.373901 184.475 1.52552 190.772 3.82875C197.07 6.13198 202.642 10.3197 207.481 16.3918C212.32 22.464 215.813 31.0263 217.967 42.0938C220.121 53.1538 221.19 67.2125 221.19 84.2698C221.19 101.327 220.113 115.386 217.967 126.446C215.813 137.506 212.32 146.076 207.481 152.148C202.642 158.22 197.07 162.4 190.772 164.711C184.467 167.014 176.479 168.166 166.801 168.166C157.123 168.166 149.128 167.014 142.83 164.711C136.525 162.408 130.961 158.22 126.114 152.148C121.275 146.076 117.775 137.513 115.629 126.446C113.475 115.386 112.405 101.327 112.405 84.2698C112.405 67.2125 113.482 53.1538 115.629 42.0938C117.783 31.0338 121.275 22.464 126.114 16.3918C130.953 10.3271 136.525 6.13946 142.83 3.82875ZM159.659 127.134C161.192 129.287 163.578 130.357 166.801 130.357C170.025 130.357 172.411 129.287 173.944 127.134C175.477 124.98 176.554 120.763 177.167 114.459C177.781 108.162 178.087 98.0967 178.087 84.2623C178.087 70.428 177.773 60.3701 177.167 54.0661C176.554 47.7696 175.477 43.5445 173.944 41.3908C172.403 39.2372 170.025 38.1678 166.801 38.1678C163.578 38.1678 161.192 39.2447 159.659 41.3908C158.118 43.5445 157.041 47.7696 156.435 54.0661C155.822 60.3701 155.515 70.428 155.515 84.2623C155.515 98.0967 155.822 108.155 156.435 114.459C157.048 120.763 158.125 124.988 159.659 127.134Z" stroke="black" stroke-miterlimit="10"/>
<path d="M312.257 121.376C312.257 137.356 307.455 149.149 297.852 156.754C288.248 164.359 275.99 168.166 261.084 168.166C247.405 168.166 236.649 167.014 228.811 164.711C225.737 163.791 223.628 162.752 222.469 161.6C221.31 160.448 220.741 158.489 220.741 155.722V133.363C220.741 127.68 223.89 125.84 230.195 127.829C235.572 129.519 242.027 130.364 249.559 130.364C261.854 130.364 268.002 126.909 268.002 119.992C268.002 116.769 266.925 113.883 264.779 111.348C262.625 108.813 257.636 104.782 249.798 99.2483C240.733 92.7948 233.665 85.6159 228.594 77.6966C223.523 69.7849 220.988 59.3755 220.988 46.4684C220.988 30.0317 224.795 18.2389 232.401 11.0899C240.008 3.9484 253.029 0.373901 271.473 0.373901C282.691 0.373901 291.375 1.14414 297.523 2.67713C300.29 3.29033 302.25 4.25499 303.401 5.55617C304.553 6.86482 305.129 8.89885 305.129 11.6657V34.713C305.129 39.7831 301.98 41.6301 295.675 40.2467C290.141 38.8633 284.225 38.1753 277.927 38.1753C273.163 38.1753 269.857 38.8633 268.017 40.2467C266.177 41.6301 265.25 44.0156 265.25 47.3882C265.25 53.8417 271.091 61.5292 282.766 70.4355C293.521 78.579 301.128 86.2665 305.585 93.4827C310.043 100.707 312.272 110.002 312.272 121.368L312.257 121.376Z" stroke="black" stroke-miterlimit="10"/>
<path d="M341.53 3.82875C347.828 1.52552 355.823 0.373901 365.501 0.373901C375.179 0.373901 383.175 1.52552 389.472 3.82875C395.77 6.13198 401.342 10.3197 406.181 16.3918C411.02 22.464 414.512 31.0263 416.666 42.0938C418.82 53.1538 419.89 67.2125 419.89 84.2698C419.89 101.327 418.813 115.386 416.666 126.446C414.512 137.506 411.02 146.076 406.181 152.148C401.342 158.22 395.77 162.4 389.472 164.711C383.167 167.014 375.179 168.166 365.501 168.166C355.823 168.166 347.828 167.014 341.53 164.711C335.225 162.408 329.661 158.22 324.814 152.148C319.975 146.076 316.475 137.513 314.329 126.446C312.175 115.386 311.105 101.327 311.105 84.2698C311.105 67.2125 312.182 53.1538 314.329 42.0938C316.483 31.0338 319.975 22.464 324.814 16.3918C329.653 10.3271 335.225 6.13946 341.53 3.82875ZM358.359 127.134C359.892 129.287 362.278 130.357 365.501 130.357C368.725 130.357 371.111 129.287 372.644 127.134C374.177 124.98 375.254 120.763 375.867 114.459C376.481 108.162 376.787 98.0967 376.787 84.2623C376.787 70.428 376.473 60.3701 375.867 54.0661C375.254 47.7696 374.177 43.5445 372.644 41.3908C371.103 39.2372 368.725 38.1678 365.501 38.1678C362.278 38.1678 359.892 39.2447 358.359 41.3908C356.818 43.5445 355.741 47.7696 355.135 54.0661C354.522 60.3701 354.215 70.428 354.215 84.2623C354.215 98.0967 354.522 108.155 355.135 114.459C355.748 120.763 356.825 124.988 358.359 127.134Z" stroke="black" stroke-miterlimit="10"/>
<path d="M414.378 34.025V10.0505C414.378 5.13739 416.831 2.67712 421.752 2.67712H496.44C501.354 2.67712 503.814 5.13739 503.814 10.0505V34.0175C503.814 38.938 501.354 41.3908 496.44 41.3908H480.307V158.474C480.307 163.395 477.846 165.848 472.933 165.848H445.267C440.346 165.848 437.893 163.395 437.893 158.474V41.3983H421.76C416.839 41.3983 414.385 38.9455 414.385 34.025H414.378Z" stroke="black" stroke-miterlimit="10"/>
<path d="M511.652 2.67712H553.147C574.508 2.67712 589.451 6.86482 597.985 15.2402C606.511 23.6156 610.782 39.0203 610.782 61.4469C610.782 86.7974 603.25 103.167 588.195 110.54L608.942 156.635C611.709 162.782 610.094 165.855 604.103 165.855H575.981C573.057 165.855 570.91 165.436 569.526 164.584C568.143 163.739 566.909 162.011 565.839 159.401L549.011 117.913H546.707V158.474C546.707 163.395 544.247 165.848 539.333 165.848H511.675C506.753 165.848 504.3 163.395 504.3 158.474V10.0505C504.3 5.13739 506.753 2.67712 511.675 2.67712H511.652ZM546.692 81.9591H553.147C559.138 81.9591 563.057 80.5383 564.904 77.6966C566.752 74.855 567.672 69.4409 567.672 61.4469C567.672 53.4529 566.752 48.0463 564.904 45.1972C563.057 42.3555 559.138 40.9347 553.147 40.9347H546.692V81.9591Z" stroke="black" stroke-miterlimit="10"/>
<path d="M641.2 3.82875C647.497 1.52552 655.493 0.373901 665.171 0.373901C674.849 0.373901 682.844 1.52552 689.141 3.82875C695.439 6.13198 701.011 10.3197 705.85 16.3918C710.689 22.464 714.182 31.0263 716.336 42.0938C718.49 53.1538 719.559 67.2125 719.559 84.2698C719.559 101.327 718.482 115.386 716.336 126.446C714.182 137.506 710.689 146.076 705.85 152.148C701.011 158.22 695.439 162.4 689.141 164.711C682.837 167.014 674.849 168.166 665.171 168.166C655.493 168.166 647.497 167.014 641.2 164.711C634.895 162.408 629.33 158.22 624.484 152.148C619.645 146.076 616.144 137.513 613.998 126.446C611.844 115.386 610.774 101.327 610.774 84.2698C610.774 67.2125 611.851 53.1538 613.998 42.0938C616.152 31.0338 619.645 22.464 624.484 16.3918C629.323 10.3271 634.895 6.13946 641.2 3.82875ZM658.028 127.134C659.561 129.287 661.947 130.357 665.171 130.357C668.394 130.357 670.78 129.287 672.313 127.134C673.847 124.98 674.924 120.763 675.537 114.459C676.15 108.162 676.457 98.0967 676.457 84.2623C676.457 70.428 676.143 60.3701 675.537 54.0661C674.924 47.7696 673.847 43.5445 672.313 41.3908C670.773 39.2372 668.394 38.1678 665.171 38.1678C661.947 38.1678 659.561 39.2447 658.028 41.3908C656.487 43.5445 655.41 47.7696 654.804 54.0661C654.191 60.3701 653.885 70.428 653.885 84.2623C653.885 98.0967 654.191 108.155 654.804 114.459C655.418 120.763 656.495 124.988 658.028 127.134Z" stroke="black" stroke-miterlimit="10"/>
<path d="M810.626 121.376C810.626 137.356 805.824 149.149 796.221 156.754C786.618 164.359 774.359 168.166 759.453 168.166C745.774 168.166 735.019 167.014 727.181 164.711C724.107 163.791 721.998 162.752 720.838 161.6C719.679 160.448 719.111 158.489 719.111 155.722V133.363C719.111 127.68 722.259 125.84 728.564 127.829C733.942 129.519 740.396 130.364 747.928 130.364C760.224 130.364 766.372 126.909 766.372 119.992C766.372 116.769 765.295 113.883 763.148 111.348C760.994 108.813 756.006 104.782 748.167 99.2483C739.103 92.7948 732.035 85.6159 726.964 77.6966C721.893 69.7849 719.357 59.3755 719.357 46.4684C719.357 30.0317 723.164 18.2389 730.771 11.0899C738.377 3.9484 751.398 0.373901 769.842 0.373901C781.061 0.373901 789.744 1.14414 795.892 2.67713C798.659 3.29033 800.619 4.25499 801.771 5.55617C802.923 6.86482 803.499 8.89885 803.499 11.6657V34.713C803.499 39.7831 800.35 41.6301 794.045 40.2467C788.51 38.8633 782.594 38.1753 776.297 38.1753C771.532 38.1753 768.226 38.8633 766.387 40.2467C764.547 41.6301 763.619 44.0156 763.619 47.3882C763.619 53.8417 769.461 61.5292 781.136 70.4355C791.891 78.579 799.497 86.2665 803.955 93.4827C808.412 100.707 810.641 110.002 810.641 121.368L810.626 121.376Z" stroke="black" stroke-miterlimit="10"/>
<path d="M108.718 63.8923V212.316C108.718 217.237 106.257 219.689 101.343 219.689H77.5968C72.6755 219.689 69.3772 217.618 67.6869 213.468L41.4124 148.244V212.316C41.4124 217.237 38.9518 219.689 34.0379 219.689H7.74852C2.8272 219.689 0.374023 217.237 0.374023 212.316V63.8923C0.374023 58.9792 2.8272 56.5189 7.74852 56.5189H31.495C36.4088 56.5189 39.7146 58.5903 41.4049 62.7406L67.6794 127.964V63.8923C67.6794 58.9792 70.14 56.5189 75.0539 56.5189H101.328C106.242 56.5189 108.703 58.9792 108.703 63.8923H108.718Z" fill="black"/>
<path d="M142.83 57.6705C149.128 55.3673 157.123 54.2157 166.801 54.2157C176.479 54.2157 184.475 55.3673 190.772 57.6705C197.07 59.9738 202.642 64.1615 207.481 70.2336C212.32 76.3058 215.812 84.8681 217.967 95.9356C220.121 106.996 221.19 121.054 221.19 138.112C221.19 155.169 220.113 169.228 217.967 180.288C215.812 191.348 212.32 199.917 207.481 205.99C202.642 212.062 197.07 216.242 190.772 218.553C184.467 220.856 176.479 222.008 166.801 222.008C157.123 222.008 149.128 220.856 142.83 218.553C136.525 216.249 130.961 212.062 126.114 205.99C121.275 199.917 117.775 191.355 115.629 180.288C113.475 169.228 112.405 155.169 112.405 138.112C112.405 121.054 113.482 106.996 115.629 95.9356C117.783 84.8756 121.275 76.3058 126.114 70.2336C130.953 64.1689 136.525 59.9813 142.83 57.6705ZM159.659 180.976C161.192 183.129 163.578 184.199 166.801 184.199C170.025 184.199 172.411 183.129 173.944 180.976C175.477 178.822 176.554 174.604 177.167 168.3C177.781 162.004 178.087 151.938 178.087 138.104C178.087 124.27 177.773 114.212 177.167 107.908C176.554 101.611 175.477 97.3863 173.944 95.2326C172.403 93.079 170.025 92.0096 166.801 92.0096C163.578 92.0096 161.192 93.0864 159.659 95.2326C158.118 97.3863 157.041 101.611 156.435 107.908C155.822 114.212 155.515 124.27 155.515 138.104C155.515 151.938 155.822 161.996 156.435 168.3C157.048 174.604 158.125 178.829 159.659 180.976Z" fill="black"/>
<path d="M312.257 175.218C312.257 191.198 307.455 202.991 297.852 210.596C288.248 218.201 275.99 222.008 261.084 222.008C247.405 222.008 236.649 220.856 228.811 218.553C225.737 217.633 223.628 216.593 222.469 215.442C221.31 214.29 220.741 212.331 220.741 209.564V187.205C220.741 181.522 223.89 179.682 230.195 181.671C235.572 183.361 242.027 184.206 249.559 184.206C261.854 184.206 268.002 180.751 268.002 173.834C268.002 170.611 266.925 167.725 264.779 165.19C262.625 162.654 257.636 158.624 249.798 153.09C240.733 146.637 233.665 139.458 228.594 131.538C223.523 123.627 220.988 113.217 220.988 100.31C220.988 83.8735 224.795 72.0807 232.401 64.9317C240.008 57.7902 253.029 54.2157 271.473 54.2157C282.691 54.2157 291.375 54.9859 297.523 56.5189C300.29 57.1321 302.25 58.0968 303.401 59.398C304.553 60.7066 305.129 62.7406 305.129 65.5075V88.5548C305.129 93.6249 301.98 95.4719 295.675 94.0885C290.141 92.7051 284.225 92.0171 277.927 92.0171C273.163 92.0171 269.857 92.7051 268.017 94.0885C266.177 95.4719 265.25 97.8574 265.25 101.23C265.25 107.684 271.091 115.371 282.766 124.277C293.521 132.421 301.128 140.108 305.585 147.325C310.043 154.548 312.272 163.843 312.272 175.21L312.257 175.218Z" fill="black"/>
<path d="M341.53 57.6705C347.828 55.3673 355.823 54.2157 365.501 54.2157C375.179 54.2157 383.175 55.3673 389.472 57.6705C395.77 59.9738 401.342 64.1615 406.181 70.2336C411.02 76.3058 414.512 84.8681 416.666 95.9356C418.82 106.996 419.89 121.054 419.89 138.112C419.89 155.169 418.813 169.228 416.666 180.288C414.512 191.348 411.02 199.917 406.181 205.99C401.342 212.062 395.77 216.242 389.472 218.553C383.167 220.856 375.179 222.008 365.501 222.008C355.823 222.008 347.828 220.856 341.53 218.553C335.225 216.249 329.661 212.062 324.814 205.99C319.975 199.917 316.475 191.355 314.329 180.288C312.175 169.228 311.105 155.169 311.105 138.112C311.105 121.054 312.182 106.996 314.329 95.9356C316.483 84.8756 319.975 76.3058 324.814 70.2336C329.653 64.1689 335.225 59.9813 341.53 57.6705ZM358.359 180.976C359.892 183.129 362.278 184.199 365.501 184.199C368.725 184.199 371.111 183.129 372.644 180.976C374.177 178.822 375.254 174.604 375.867 168.3C376.481 162.004 376.787 151.938 376.787 138.104C376.787 124.27 376.473 114.212 375.867 107.908C375.254 101.611 374.177 97.3863 372.644 95.2326C371.103 93.079 368.725 92.0096 365.501 92.0096C362.278 92.0096 359.892 93.0864 358.359 95.2326C356.818 97.3863 355.741 101.611 355.135 107.908C354.522 114.212 354.215 124.27 354.215 138.104C354.215 151.938 354.522 161.996 355.135 168.3C355.748 174.604 356.825 178.829 358.359 180.976Z" fill="black"/>
<path d="M414.378 87.8668V63.8997C414.378 58.9866 416.831 56.5264 421.752 56.5264H496.44C501.354 56.5264 503.814 58.9866 503.814 63.8997V87.8668C503.814 92.7873 501.354 95.2401 496.44 95.2401H480.307V212.323C480.307 217.244 477.846 219.697 472.933 219.697H445.267C440.346 219.697 437.893 217.244 437.893 212.323V95.2401H421.76C416.839 95.2401 414.385 92.7873 414.385 87.8668H414.378Z" fill="black"/>
<path d="M511.652 56.5189H553.147C574.508 56.5189 589.451 60.7066 597.985 69.082C606.511 77.4574 610.782 92.8621 610.782 115.289C610.782 140.639 603.25 157.009 588.195 164.382L608.942 210.476C611.709 216.623 610.094 219.697 604.103 219.697H575.981C573.057 219.697 570.91 219.278 569.526 218.426C568.143 217.581 566.909 215.853 565.839 213.243L549.011 171.755H546.707V212.316C546.707 217.237 544.247 219.689 539.333 219.689H511.675C506.753 219.689 504.3 217.237 504.3 212.316V63.8923C504.3 58.9792 506.753 56.5189 511.675 56.5189H511.652ZM546.692 135.801H553.147C559.138 135.801 563.057 134.38 564.904 131.538C566.752 128.697 567.672 123.283 567.672 115.289C567.672 107.295 566.752 101.888 564.904 99.0389C563.057 96.1973 559.138 94.7765 553.147 94.7765H546.692V135.801Z" fill="black"/>
<path d="M641.2 57.6705C647.497 55.3673 655.493 54.2157 665.171 54.2157C674.849 54.2157 682.844 55.3673 689.141 57.6705C695.439 59.9738 701.011 64.1615 705.85 70.2336C710.689 76.3058 714.182 84.8681 716.336 95.9356C718.49 106.996 719.559 121.054 719.559 138.112C719.559 155.169 718.482 169.228 716.336 180.288C714.182 191.348 710.689 199.917 705.85 205.99C701.011 212.062 695.439 216.242 689.141 218.553C682.837 220.856 674.849 222.008 665.171 222.008C655.493 222.008 647.497 220.856 641.2 218.553C634.895 216.249 629.33 212.062 624.484 205.99C619.645 199.917 616.144 191.355 613.998 180.288C611.844 169.228 610.774 155.169 610.774 138.112C610.774 121.054 611.851 106.996 613.998 95.9356C616.152 84.8756 619.645 76.3058 624.484 70.2336C629.323 64.1689 634.895 59.9813 641.2 57.6705ZM658.028 180.976C659.561 183.129 661.947 184.199 665.171 184.199C668.394 184.199 670.78 183.129 672.313 180.976C673.847 178.822 674.924 174.604 675.537 168.3C676.15 162.004 676.457 151.938 676.457 138.104C676.457 124.27 676.143 114.212 675.537 107.908C674.924 101.611 673.847 97.3863 672.313 95.2326C670.773 93.079 668.394 92.0096 665.171 92.0096C661.947 92.0096 659.561 93.0864 658.028 95.2326C656.487 97.3863 655.41 101.611 654.804 107.908C654.191 114.212 653.885 124.27 653.885 138.104C653.885 151.938 654.191 161.996 654.804 168.3C655.418 174.604 656.495 178.829 658.028 180.976Z" fill="black"/>
<path d="M810.626 175.218C810.626 191.198 805.824 202.991 796.221 210.596C786.618 218.201 774.359 222.008 759.453 222.008C745.774 222.008 735.019 220.856 727.181 218.553C724.107 217.633 721.998 216.593 720.838 215.442C719.679 214.29 719.111 212.331 719.111 209.564V187.205C719.111 181.522 722.259 179.682 728.564 181.671C733.942 183.361 740.396 184.206 747.928 184.206C760.224 184.206 766.372 180.751 766.372 173.834C766.372 170.611 765.295 167.725 763.148 165.19C760.994 162.654 756.006 158.624 748.167 153.09C739.103 146.637 732.035 139.458 726.964 131.538C721.893 123.627 719.357 113.217 719.357 100.31C719.357 83.8735 723.164 72.0807 730.771 64.9317C738.377 57.7902 751.398 54.2157 769.842 54.2157C781.061 54.2157 789.744 54.9859 795.892 56.5189C798.659 57.1321 800.619 58.0968 801.771 59.398C802.923 60.7066 803.499 62.7406 803.499 65.5075V88.5548C803.499 93.6249 800.35 95.4719 794.045 94.0885C788.51 92.7051 782.594 92.0171 776.297 92.0171C771.532 92.0171 768.226 92.7051 766.387 94.0885C764.547 95.4719 763.619 97.8574 763.619 101.23C763.619 107.684 769.461 115.371 781.136 124.277C791.891 132.421 799.497 140.108 803.955 147.325C808.412 154.548 810.641 163.843 810.641 175.21L810.626 175.218Z" fill="black"/>
</g>
<defs>
<clipPath id="clip0_6_264">
<rect width="811" height="222" fill="white"/>
</clipPath>
</defs>
</svg>
