<svg width="97" height="97" viewBox="0 0 97 97" fill="none" xmlns="http://www.w3.org/2000/svg">
<g clip-path="url(#clip0_1_145)">
<path d="M22.4533 7.87789C23.8566 7.11762 24.8796 5.99469 26.3878 5.3087C28.8054 4.20762 30.9694 3.14586 33.4351 2.31131C38.4276 0.629106 43.4682 0.126629 48.6837 0.00865587C58.4326 -0.209813 69.0953 3.29879 77.2223 9.42902C92.366 20.8505 100.003 40.0452 95.9027 59.0956C91.8589 77.8927 76.689 92.1062 58.0829 96.0081C36.845 100.46 14.7852 89.5851 5.16743 69.9754C1.04926 61.5774 -1.00983 51.9168 0.489674 42.527C1.39899 36.8206 2.64057 31.171 5.51717 25.871C7.99157 21.305 11.0518 17.3201 14.5011 14.0474C15.5153 13.0818 20.6827 8.83478 22.4576 7.87789H22.4533ZM91.4261 68.6514C91.9419 67.5984 92.5234 66.4842 92.9125 65.3919C93.8218 62.8358 94.5082 60.1792 94.941 57.5096C95.7716 52.3668 96.1869 47.4687 95.4918 42.2386C94.1978 32.4949 89.3801 22.3012 82.228 15.0655C79.6399 12.4439 75.819 9.27172 72.5489 7.58514C70.2407 6.39667 67.8318 5.45289 65.4186 4.37803C64.3388 3.89739 55.4292 1.16217 49.4531 1.16654C43.4201 1.16654 36.8931 1.80884 31.2011 4.28627C26.0731 6.51465 21.321 9.46834 17.229 13.1168C15.2268 14.8995 13.0584 16.8045 11.384 18.8669C9.93262 20.6583 8.7129 22.9173 7.35767 24.8179C6.44834 26.0982 5.75324 28.0076 5.19366 29.5412C4.68654 30.9351 4.1663 31.8876 3.76847 33.2814C3.30507 34.9024 2.77609 36.5497 2.29083 38.1751C1.23724 41.7055 1.21101 45.6423 1.21101 49.5005C1.20664 71.391 18.0815 90.992 39.2801 95.0118C49.4924 96.9518 60.6666 95.794 69.6286 90.8173C74.2714 88.2393 77.9043 85.8449 81.7208 82.4368C83.0498 81.2527 84.5013 79.4613 85.6598 78.0369C86.5778 76.9052 87.2074 75.5157 88.0992 74.3666C88.4271 73.9427 91.2337 69.0534 91.4261 68.6602V68.6514Z" fill="white"/>
<path d="M59.1538 78.2423C49.1557 81.5805 40.316 79.9944 32.7661 75.7867C31.1441 74.8823 29.2162 73.6457 27.944 72.4267C27.5331 72.0334 22.5056 67.7646 24.7133 67.5723C25.3385 67.5199 29.5528 73.0821 34.1738 75.2624C38.5149 77.3116 43.7566 78.9982 48.5611 78.9021C53.5187 78.8016 57.8292 77.6393 62.1485 75.5246C65.8164 73.7288 68.8591 71.3737 71.5739 68.0748C72.9292 66.4275 74.3937 64.4001 75.526 62.3116C77.6288 58.436 78.031 58.436 78.2977 59.0477C78.5206 59.5676 77.0779 62.1412 76.7807 62.7136C76.1424 63.9457 75.3773 65.156 74.6167 66.3139C73.4887 68.0311 72.0286 69.6346 70.5378 71.1028C69.6547 71.9723 63.9977 76.9883 59.1538 78.2423Z" fill="white"/>
<path d="M62.1134 21.3793C60.7976 20.7239 59.4948 20.169 58.1833 19.7451C57.4925 19.5223 54.8389 18.8975 53.7722 18.7008C48.5042 17.744 43.7216 18.478 38.7859 19.8937C34.1169 21.2351 30.2654 23.9834 26.8423 27.2299C25.3821 28.6149 24.2324 30.319 23.1526 31.9881C22.252 33.3863 21.1678 36.5017 19.7426 36.5017C18.9251 36.5017 20.8487 33.194 21.5175 32.294C22.0684 31.5512 22.5842 30.8258 23.0564 30.1224C24.9843 27.2648 27.2489 24.8442 30.1692 22.9522C35.0655 19.7757 39.7695 18.0017 45.5052 17.2065C51.1579 16.4244 57.3177 17.709 62.1747 20.1602C64.7889 21.4798 67.1497 23.0353 69.3836 24.9534C69.6503 25.1806 73.9302 29.1961 73.6373 29.9694C73.1477 31.254 71.963 29.0126 71.3859 28.3266C70.8307 27.6668 68.0765 25.3904 67.4032 24.8311C66.8262 24.3461 62.5462 21.6021 62.1134 21.388V21.3793Z" fill="white"/>
<path d="M13.8322 33.902C13.2027 33.9806 11.3884 33.7797 11.9043 34.0374C12.4202 34.2952 13.7273 34.8458 13.9678 34.9244C14.2519 35.0162 14.606 35.2303 14.9077 35.3483C15.6815 35.6541 15.9831 35.6716 15.3536 36.4144C14.7372 37.1397 14.5186 36.7596 13.6617 36.3139C12.7786 35.8507 11.8868 35.6454 10.9819 35.2652C10.5403 35.0774 10.0682 34.9113 9.59165 34.7278C9.3512 34.6361 8.78288 34.304 8.87468 33.7622C9.0583 32.648 10.0813 32.9145 10.7808 32.8927C11.4802 32.8708 12.0967 33.0369 12.1054 32.5737C12.0835 32.246 11.5939 31.7916 11.3622 31.5163C10.4747 30.5725 9.84958 30.2317 10.689 29.3447C11.1174 28.8903 12.4464 29.8166 12.9491 30.0569C13.43 30.2885 13.8104 30.424 14.3044 30.6293C14.9295 30.8871 15.4716 31.2542 16.1361 31.5032C17.4083 31.9795 17.3864 31.7523 16.9362 33.0893C16.8531 33.2684 16.3372 32.9189 15.9263 32.7528C15.6246 32.6043 15.1306 32.4383 14.8858 32.3203C14.2825 32.0101 12.4988 31.2017 12.7786 31.6168C13.2726 32.1324 13.8759 32.8839 14.3219 33.4083C14.7459 33.9064 14.1033 33.8801 13.8366 33.8976L13.8322 33.902Z" fill="white"/>
<path d="M57.3747 14.5325C56.7758 14.6811 54.6861 14.3534 54.3975 13.6805C54.1527 13.1081 54.8347 11.4783 54.9746 10.8797C55.1626 10.0845 55.2063 9.31549 55.4162 8.48531C55.7134 7.31869 55.4511 6.57153 56.7583 6.84243C57.7069 7.03905 59.1365 7.22256 59.578 8.11828C60.0196 9.01837 59.7704 10.1675 59.1015 10.6787C58.2359 11.3385 59.1715 11.5526 59.0228 12.5357C58.8654 13.5975 58.4414 14.0606 57.3703 14.5369L57.3747 14.5325ZM57.1168 13.0688C58.0348 12.8634 58.0829 10.7836 56.5528 10.9977C56.1681 11.0501 55.8752 12.1731 55.8752 12.6056C56.0763 13.3615 56.6752 13.1343 57.1124 13.0688H57.1168ZM58.2796 8.89603C58.1747 8.44162 57.7244 7.83428 57.0774 8.32364C56.8982 8.4591 56.6752 9.63446 56.7495 9.82234C56.955 10.3641 58.6163 10.3729 58.2796 8.89603Z" fill="white"/>
<path d="M76.5229 22.1047C76.5316 22.463 78.2759 20.6453 78.7525 20.0554C79.2421 19.4481 79.0323 19.2602 79.7142 19.5923C79.6662 19.5661 80.3787 20.1341 80.2869 20.3263C79.9372 21.0691 78.6738 21.978 78.4202 22.2227C77.6158 23.0179 76.7327 23.717 75.9371 24.6083C75.3993 25.2113 75.2551 25.5696 74.6168 25.0103C74.1228 24.5777 74.2321 24.5646 74.3458 24.0185C74.5512 23.0528 75.8321 21.0211 75.6879 20.6759C75.4955 20.3526 74.7786 21.1347 74.455 21.5236C74.1884 21.8425 73.2353 23.2232 72.8069 23.1839C72.5184 23.1577 72.0943 22.3319 72.1205 22.0741C72.1555 21.7595 73.4277 20.6934 73.9523 20.2084C74.7174 19.5005 75.4299 18.9937 76.1076 18.2159C76.6103 17.6436 77.3972 16.6299 77.9218 17.7965C78.2978 18.6398 77.7776 18.915 77.5196 19.5486C77.3841 19.8763 76.5229 21.4274 76.5229 22.0959V22.1047Z" fill="white"/>
<path d="M23.4676 15.5287C23.0785 14.9389 22.9473 14.2529 23.6337 14.0868C24.5998 13.8509 25.6228 15.1311 26.4534 15.5768C26.7332 15.7385 28.0142 16.5424 27.4721 15.8652C27.3803 15.7472 26.6983 14.9563 26.7638 15.0525C26.2873 14.3577 25.0064 13.3047 25.6534 12.4833C26.5759 11.3123 27.7038 13.947 28.1409 14.633C28.6961 15.5069 29.4087 16.5118 30.0033 17.5386C30.2787 18.0105 29.5836 18.3732 29.3956 18.5043C29.0415 18.749 28.7486 18.4213 28.2021 18.1023C27.4502 17.6654 25.0064 15.8433 25.413 16.4769C26.0032 17.3726 26.8469 18.1067 27.319 19.1116C27.9092 20.3613 26.7026 20.335 26.0731 19.649C25.7103 19.2558 23.7386 16.0356 23.4719 15.5287H23.4676Z" fill="white"/>
<path d="M34.4754 15.3627C34.1956 16.4376 33.5923 16.6123 32.6349 17.1192C31.7518 17.5867 31.4458 17.8532 30.9212 16.9051C30.8032 16.7128 30.2742 15.2404 30.0818 14.7466C29.8021 14.0257 29.378 12.9901 28.9102 12.3478C28.3375 11.557 27.9091 11.1637 30.06 10.2418C31.0349 9.8267 32.6218 10.0758 33.3432 11.4128C33.5836 11.8628 34.7334 14.349 34.4711 15.3671L34.4754 15.3627ZM30.6283 12.6843C30.9212 13.2086 31.9136 15.9963 32.2896 15.8914C32.6393 15.7909 33.1246 15.7822 33.1246 14.6549C33.1246 13.8422 32.4732 12.5357 31.9792 11.8978C31.5682 11.3647 31.1092 11.2205 30.86 11.3035C29.754 11.6662 30.2917 12.0026 30.6283 12.6843Z" fill="white"/>
<path d="M38.139 15.1093C37.5445 15.3583 36.6045 15.0743 36.0624 14.5587C35.4723 13.9995 35.2362 12.9202 35.022 12.2473C34.4799 10.5476 33.8678 8.30179 36.1324 7.83864C36.5477 7.75125 37.527 7.6726 38.0953 8.18382C38.6549 8.6863 39.6735 10.9147 39.6735 12.7367C39.6735 13.829 39.3675 14.5937 38.1434 15.1093H38.139ZM36.3204 11.2904C36.4734 11.8235 36.7707 14.1043 37.8155 13.5887C38.7729 13.1168 38.1084 10.5739 37.2822 9.52959C37.0854 9.28053 36.4472 9.29801 36.2373 9.77864C36.045 10.2199 36.2635 11.1113 36.316 11.2948L36.3204 11.2904Z" fill="white"/>
<path d="M68.2122 18.9412C68.0898 17.696 69.5544 15.1967 71.2943 14.266C72.1861 13.7897 72.4791 13.6587 73.4277 14.1131C75.4431 15.0831 74.2758 17.2459 73.7556 18.0936C73.3578 18.749 72.8813 19.5442 72.3348 20.0642C71.5828 20.7807 71.0582 20.9686 70.1926 20.6715C69.0472 20.2739 68.3696 19.9637 68.2122 18.9369V18.9412ZM72.3042 15.3147C71.561 15.2054 69.2527 18.1329 69.738 18.9937C70.691 20.6759 74.6387 15.7385 72.3042 15.3147Z" fill="white"/>
<path d="M62.3847 15.5855C62.4066 14.9607 62.4503 14.3359 61.5716 14.4451C60.894 14.5282 60.8808 15.2316 60.3693 15.3321C60.2426 15.3583 59.425 15.1879 59.3158 14.9214C59.0622 14.3097 62.2186 9.99275 62.459 9.66068C62.5814 9.49027 62.8131 8.76496 63.7356 8.8873C63.9848 8.91788 65.2001 8.81302 65.3444 9.66941C65.5455 10.8317 64.6099 13.1081 64.3564 13.7679C64.1728 14.2441 64.0023 16.3764 63.5607 16.5905C63.0448 16.7871 62.3541 16.5381 62.3803 15.5943L62.3847 15.5855ZM62.8656 13.4926C63.4164 13.7373 64.3126 10.635 63.74 10.635C63.3203 10.7224 63.023 11.273 62.7038 11.7755C61.9913 12.9071 61.4142 12.8809 62.8656 13.4926Z" fill="white"/>
<path d="M13.3993 24.8529C13.6704 24.5558 15.677 25.4865 16.1841 25.6481C17.0672 25.9365 17.5918 26.3603 18.2782 26.6269C18.9558 26.8934 20.9143 27.1294 19.7864 28.1518C18.9908 28.8727 17.4301 27.4396 17.4388 29.0694C17.4388 29.6417 18.9558 30.153 18.064 30.9351C17.2246 31.6779 16.241 30.0394 15.6595 29.4976C14.8027 28.6892 13.5567 27.8678 12.8747 26.8978C12.2889 26.0632 12.8091 25.4472 13.3993 24.8529ZM14.2693 26.2511C13.9502 26.1768 13.9021 26.3604 14.1819 26.605C14.4617 26.8497 16.0705 28.462 16.6694 28.0994C18.1689 27.1993 14.8333 26.4128 14.2693 26.2467V26.2511Z" fill="white"/>
<path d="M18.7328 18.2116C18.8159 17.779 19.8083 17.128 19.6553 17.2372C20.416 16.6867 21.2772 17.3508 21.863 17.8708C22.5275 18.465 24.8402 20.2128 25.4609 20.6278C26.0817 21.0429 25.9987 20.9949 25.8238 21.4449C25.4216 22.4936 24.8095 21.7115 24.1188 21.5804C23.4325 21.4493 23.4019 21.5804 23.2532 21.9561C23.0958 22.3625 23.6948 23.2932 23.7035 23.4461C23.7472 24.2501 22.58 24.3855 22.2871 24.1452C22.0554 23.9529 21.1111 22.2969 20.8138 21.8906C20.5908 21.5891 18.6673 18.6879 18.7328 18.2116ZM22.7767 20.7458C23.039 20.1691 21.3297 18.7272 20.8007 18.7971C20.5384 18.832 20.8531 19.4306 21.1592 20.0205C21.404 20.488 21.5701 20.9512 21.9548 21.1172C22.3133 21.2745 22.6324 21.0386 22.7723 20.7458H22.7767Z" fill="white"/>
<path d="M46.6507 6.47542C46.7688 7.96538 44.6835 7.16578 44.5523 7.91294C44.3731 8.9179 44.6791 9.24123 45.4529 9.12326C46.3229 8.99218 46.2398 9.04898 46.4059 9.55583C46.524 9.91412 46.2704 10.2899 45.8944 10.3248C45.431 10.3685 45.0988 10.4297 44.9414 10.587C44.6397 10.8841 44.7403 12.208 45.0682 12.3915C45.2299 12.4833 46.0343 12.3216 46.2267 12.2954C46.8737 12.2037 47.2846 12.8722 46.865 13.2873C46.5808 13.5669 45.8026 13.6237 44.8714 13.6587C43.8572 13.6936 43.6823 13.7417 43.5949 13.0906C43.5599 12.8023 43.184 9.88353 43.1971 8.02655C43.2014 7.41047 43.0747 6.90799 43.2495 6.66767C43.7741 5.94236 46.5852 5.62339 46.6551 6.47105L46.6507 6.47542Z" fill="white"/>
<path d="M14.8159 22.7469C14.5011 22.4498 15.5153 21.7813 15.7602 21.4492C15.97 21.1608 16.1886 20.9423 16.4159 20.5928C16.6432 20.2432 16.9711 19.7058 17.2946 19.8981C17.9854 20.3088 18.1078 20.453 18.0684 20.8331C18.0247 21.2744 17.299 21.4929 17.7012 21.8599C17.9023 22.0434 18.7941 22.6726 19.1045 22.961C19.8302 23.6426 20.792 24.1932 21.4696 24.901C21.8325 25.2768 22.191 25.753 21.4915 26.2205C20.98 26.5614 20.9625 26.2948 20.5559 26.0196C20.215 25.788 17.8411 23.765 17.2159 23.3018C16.2935 22.6158 16.6039 22.9479 15.9438 23.3848C15.4716 23.6994 15.2224 23.1445 14.8115 22.7469H14.8159Z" fill="white"/>
<path d="M49.8421 6.56715C49.7634 7.70318 49.7984 8.94845 49.6366 10.0714C49.5186 10.9103 49.3656 11.9589 50.1394 11.9415C50.5984 11.9327 52.1066 11.8716 51.2804 13.2261C51.0137 13.6674 48.5437 13.6455 48.2857 13.4314C47.6606 12.9027 48.0497 9.87039 48.0322 9.19751C48.0191 8.60764 47.971 6.98661 48.2639 6.40548C48.618 5.69764 49.9252 5.80251 49.8421 6.56715Z" fill="white"/>
<path d="M66.0526 18.0761C65.0777 17.8707 63.6743 16.7522 65.1083 15.9526C65.5673 15.6948 65.6985 16.8221 66.2755 16.206C66.5553 15.9089 66.9706 14.8864 67.1848 14.5413C67.6789 13.7373 68.4745 11.4696 69.0778 11.3691C69.327 11.3298 70.162 11.841 70.2232 12.0551C70.315 12.374 69.2002 13.6149 68.715 14.7903C68.4308 15.4763 67.4778 17.0624 67.281 17.3595C67.0275 17.7484 66.6734 18.2159 66.0569 18.0717L66.0526 18.0761Z" fill="white"/>
<path d="M74.761 12.6799C75.2725 12.3434 76.4966 13.296 76.1293 13.5144C75.7621 13.7111 74.8965 14.0562 74.4768 13.9732C73.5282 13.7853 74.6036 12.7673 74.761 12.6799Z" fill="white"/>
<path d="M77.3228 33.2771C77.3228 34.3825 77.6157 35.1472 78.114 35.1472C78.7173 35.1472 79.3906 34.0767 80.1382 32.9013C80.689 32.0406 81.4278 31.6692 81.4278 30.9133C81.4278 30.0219 80.7458 29.4801 79.9939 29.4801C78.5643 29.4801 77.3228 32.1673 77.3228 33.2727V33.2771Z" fill="white"/>
<path d="M22.4444 56.6795C21.557 56.6795 21.0455 56.2775 21.0455 54.9535C21.0455 53.6296 26.2959 42.3435 25.3254 41.5177C24.8226 41.0895 20.1711 44.7948 16.5688 49.5443C13.1982 53.9879 9.63524 62.8577 14.7676 62.8577C17.7142 62.8577 21.6794 61.0357 23.0739 61.0357C23.8915 61.0357 24.2762 61.6299 24.2762 62.6131C24.2762 63.5918 21.2903 66.1129 15.4147 66.9606C-4.07015 69.7745 18.37 38.0266 25.627 38.0266C26.3571 38.0266 27.0129 38.1795 27.5681 38.5553C29.9113 40.137 28.6829 44.017 27.2533 47.7834C25.5352 52.3145 24.2631 56.6838 22.4444 56.6838V56.6795Z" fill="white"/>
<path d="M35.0612 34.2602C33.8939 34.4655 32.1103 36.5454 30.2523 43.5058C28.0489 51.091 24.2237 62.6305 27.2926 62.6305C29.1331 62.6305 29.4217 60.4414 32.0928 55.5783C34.1475 51.6677 36.3465 48.3164 36.6787 48.5305C37.3214 48.9369 34.7683 52.7077 34.7683 56.946C34.7377 59.4365 37.5706 61.5119 38.375 60.7386C39.1794 59.9652 37.5443 59.4977 39.2318 52.31C40.3728 47.4426 41.9335 44.8209 39.8701 43.9209C36.6263 42.4178 32.801 51.1172 32.1802 50.9162C31.5551 50.7152 33.4874 44.4321 35.118 39.5821C36.3115 36.0341 36.7006 33.9674 35.0612 34.2558V34.2602Z" fill="white"/>
<path d="M48.3512 42.5532C44.8669 42.5532 41.8067 47.6566 40.9936 52.6945C40.4252 56.4434 43.0745 58.4446 45.256 58.4446C48.0583 58.4446 50.419 55.539 50.8037 54.0709C50.9873 53.3674 50.5371 52.948 49.96 53.1533C49.3917 53.3587 48.4255 55.137 46.0998 55.137C45.3566 55.137 44.7839 54.4466 44.8145 53.079C44.8582 50.7939 47.4637 44.8515 49.1468 45.5637C50.3403 46.0706 44.8363 53.4504 43.3456 53.4504C43.3456 54.2238 43.656 54.5908 44.2287 54.5908C46.9304 54.5908 51.1491 48.6616 51.1491 45.5987C51.1491 43.7242 50.2092 42.562 48.3556 42.562L48.3512 42.5532Z" fill="white"/>
<path d="M59.7397 40.2769C56.3779 40.2769 52.216 46.7523 51.5777 51.1959C50.9395 55.6396 54.6511 56.8892 55.6085 56.863C58.3933 56.7974 60.1682 54.0054 60.1857 53.1184C60.1944 52.7296 60.0108 52.5854 59.6261 52.5854C58.9485 52.5854 58.1703 53.9923 56.5921 53.9923C55.8708 54.0054 55.5691 53.2277 55.591 51.4974C55.6216 49.1467 58.9834 43.1301 60.4261 43.7505C61.3923 44.1656 56.3648 51.2702 54.8041 51.3139C54.8041 51.3139 55.18 52.4412 55.7178 52.4281C59.3725 52.3276 62.4808 45.7604 62.6338 43.7243C62.7388 42.313 62.647 40.2812 59.7397 40.2812V40.2769Z" fill="white"/>
<path d="M63.5781 57.2693C61.7813 56.9372 63.0185 51.8206 64.2907 45.3234C65.5628 38.8261 65.4011 36.1215 67.4252 35.2214C70.1007 34.0329 69.3925 36.0865 67.2984 46.8046C65.7814 54.569 65.3705 57.6057 63.5737 57.2736L63.5781 57.2693Z" fill="white"/>
<path d="M64.0371 37.6639C64.0371 36.2352 68.2077 33.2989 72.068 33.3164C73.8298 33.1023 76.1687 34.7015 76.1687 37.0916C76.1687 43.2873 68.4351 48.902 68.4351 49.5967C68.4351 50.2914 73.3576 53.6646 73.5675 54.9055C73.7424 55.9235 73.2527 56.6008 72.2472 56.3299C71.6352 56.1638 64.5836 53.3019 64.5836 49.8938C64.5836 48.2466 67.1716 45.8565 69.257 43.2436C71.4865 40.4516 73.6462 37.1265 73.0473 36.5541C71.8887 35.4443 66.376 39.6039 65.7246 39.6039C65.0688 39.6039 64.0371 38.7956 64.0371 37.6639Z" fill="white"/>
<path d="M73.5851 50.9118C71.8713 48.4519 73.7687 46.975 75.5217 48.6922C77.3316 50.4705 81.7034 53.5422 83.334 51.5148C84.2258 50.4312 76.8813 46.7565 78.0136 41.0327C78.853 36.7944 86.1713 28.3178 89.1047 31.2496C90.6654 32.8095 89.2796 36.4623 88.1735 39.1932C87.1899 41.6269 86.0226 42.8197 84.5974 43.2479C83.6051 43.5145 82.9231 42.8197 83.1373 41.7143C83.3209 40.9191 84.4532 39.8486 85.2139 38.4198C86.1057 36.7463 86.5254 35.051 86.2237 34.8413C85.6598 34.4524 81.4061 40.1544 81.4061 42.0333C81.4061 46.9095 89.144 48.7228 86.2543 53.5203C82.652 58.9427 74.4813 52.1833 73.5894 50.9031L73.5851 50.9118Z" fill="white"/>
<path d="M65.0295 81.3095C65.6197 81.9387 66.0962 82.983 66.3891 83.7826C66.6952 84.6084 67.0974 85.9804 66.599 86.8193C65.6503 88.4185 63.6306 88.0777 62.5027 86.5877C62.1267 86.094 61.095 83.8744 61.095 82.7121C61.095 81.7989 62.0568 80.8508 62.9486 80.6192C63.412 80.4968 64.2645 80.676 65.0252 81.3095H65.0295ZM63.4207 82.1179C62.9748 82.0043 62.8043 82.5767 63.0054 83.1622C63.1409 83.6908 64.1421 86.4785 64.9596 86.2731C65.5541 86.1246 64.9596 84.6346 64.7497 84.1933C64.5705 83.8219 64.0984 82.297 63.4251 82.1179H63.4207Z" fill="white"/>
<path d="M40.4954 85.679C41.2517 85.8581 41.4091 85.7052 41.5359 86.365C41.6233 86.8194 41.4878 87.1078 41.1381 87.3044C40.5391 87.6452 40.0932 86.8893 39.5074 87.1384C39.0134 87.3481 38.8648 88.0865 39.232 88.471C39.8309 89.0915 40.9457 88.3094 41.1118 89.2138C41.278 90.1314 40.5304 90.6033 39.8484 90.2887C39.2407 90.009 39.0484 90.0178 38.2746 89.725C37.9904 89.6158 37.1248 89.1352 37.2254 88.6808C37.2691 88.4798 37.8549 85.561 38.0123 84.8139C38.1522 84.1585 38.2046 83.0049 38.7555 82.6772C39.1664 82.4326 42.3578 83.0312 42.419 83.42C42.454 83.6429 42.2572 84.5648 42.0649 84.7876C41.6889 85.2246 40.6266 84.2153 40.1151 84.4599C39.8047 84.6085 39.7041 84.9755 39.7173 85.1416C39.7479 85.4605 40.2156 85.5698 40.4867 85.6746L40.4954 85.679Z" fill="white"/>
<path d="M57.5757 84.4992C57.5626 84.9449 58.0216 85.4386 57.7069 85.6571C57.191 86.0066 56.5003 86.1858 56.3298 85.7445C55.744 84.5997 55.6434 83.3981 56.9681 82.7034C57.8643 82.2315 58.7954 82.166 59.5561 82.8563C59.9583 83.2233 60.1157 84.0797 60.2206 84.7526C60.413 86.0285 59.849 87.2737 59.5299 87.9379C59.4381 88.2568 60.3299 87.6801 60.837 87.785C61.3879 87.8986 61.7726 88.5714 61.3092 89.122C61.0119 89.4759 59.8141 89.5764 59.3288 89.7643C58.931 89.9172 58.0304 90.4415 57.602 90.2231C56.7145 89.7643 57.3222 88.6588 57.7069 88.1258C58.4544 87.0902 58.4763 85.36 58.4413 84.9755C58.3626 84.0928 57.602 83.3326 57.5757 84.4992Z" fill="white"/>
<path d="M42.467 90.6993C41.8244 90.2755 42.2834 88.7637 42.9567 89.2574C43.3851 89.524 44.2113 89.7861 44.6529 89.2312C44.9808 88.8161 44.4168 88.4273 44.0583 88.0253C43.7217 87.6539 43.2364 87.2912 42.9217 86.7844C42.5282 86.1596 42.6681 84.8225 42.996 84.3506C43.4769 83.6559 44.4605 83.4506 44.6354 83.4418C44.9064 83.4243 46.3928 83.6078 46.5502 83.9574C46.7295 84.3463 46.7338 84.8007 46.5327 85.1459C45.8289 86.0591 44.8846 84.1497 44.3906 85.5435C44.1327 86.2732 45.4966 86.9417 45.8813 87.3786C46.9393 88.5802 46.5633 90.0876 45.2256 90.7649C44.0408 91.3635 43.4069 91.1931 42.4626 90.7037L42.467 90.6993Z" fill="white"/>
<path d="M49.4573 91.0839C48.5829 91.1844 48.5086 90.8174 48.4693 89.8955C48.4431 89.3056 48.478 87.1646 48.5305 86.6272C48.6485 85.4343 48.3512 85.478 47.9753 85.4649C47.4813 85.4474 47.1315 84.8095 47.3851 84.1716C47.5731 83.7041 47.8266 83.9444 48.3425 83.9094C48.6791 83.8832 50.0606 84.0711 50.4715 83.9575C51.3852 83.7128 51.3328 85.2115 50.9131 85.3994C50.4234 85.6178 50.1655 85.2333 50.1786 86.5179C50.1917 87.7894 50.4846 90.9266 49.4617 91.0927L49.4573 91.0839Z" fill="white"/>
<path d="M67.8579 80.8377C67.8579 81.4494 67.8186 82.3757 66.3978 81.5674C66.0087 81.3489 66.5814 79.8983 66.6994 79.4657C66.9093 78.6967 66.8568 78.5569 67.6044 78.1898C68.4306 77.7879 68.553 78.0631 69.0383 78.9283C69.4099 79.5968 70.8176 82.0305 70.9837 82.2839C71.1149 82.4806 72.0111 83.6297 72.0155 83.9836C72.0242 84.5254 70.4635 85.1109 69.9476 84.3288C69.6154 83.8089 67.9847 79.4788 67.8623 80.8377H67.8579Z" fill="white"/>
<path d="M52.4828 89.2006C52.8281 89.0958 53.4314 89.039 53.6413 89.4278C53.7899 89.7075 53.65 90.341 53.6063 90.4284C52.7669 92.233 51.0969 89.7905 52.4828 89.2006Z" fill="white"/>
<path d="M74.5119 76.3591C75.8321 77.7354 76.4398 79.1162 76.3043 80.191C76.2212 80.9426 75.4343 81.7116 74.7873 82.1441C74.1403 82.5767 73.349 82.3626 73.2528 81.9519C73.126 81.4145 73.432 81.1173 74.0397 80.8901C75.325 80.4707 74.7785 78.8016 74.1097 79.3565C73.7643 79.6449 73.161 80.0949 72.5315 80.1124C71.95 80.1255 71.3467 79.7366 70.9008 79.1773C69.974 78.0151 70.1489 76.796 70.3325 76.3984C70.5161 76.0008 71.08 75.3935 71.5085 75.3323C71.9369 75.2668 73.196 74.9871 74.5162 76.3635L74.5119 76.3591ZM71.8801 76.6737C71.2899 76.9096 72.3653 78.7273 72.8069 78.653C73.2528 78.5787 73.5894 77.7398 73.1304 77.2373C72.6714 76.7392 72.4746 76.4334 71.8801 76.6693V76.6737Z" fill="white"/>
</g>
<defs>
<clipPath id="clip0_1_145">
<rect width="97" height="97" fill="white"/>
</clipPath>
</defs>
</svg>
