<svg width="286" height="19" viewBox="0 0 286 19" fill="none" xmlns="http://www.w3.org/2000/svg">
<path d="M9.50264 13.9457C9.50264 15.6613 9.00222 16.9269 8.0068 17.7425C7.01139 18.5582 5.73857 18.9688 4.18834 18.9688C2.76866 18.9688 1.64814 18.845 0.837668 18.5975C0.516743 18.4963 0.299167 18.3894 0.1795 18.2657C0.0598335 18.1419 0 17.9338 0 17.6357V15.2338C0 14.6263 0.326364 14.4238 0.979093 14.6375C1.53935 14.8175 2.2084 14.9075 2.99167 14.9075C4.26993 14.9075 4.90634 14.5363 4.90634 13.7938C4.90634 13.445 4.79212 13.1357 4.5691 12.8657C4.34608 12.5957 3.82934 12.1625 3.01343 11.5663C2.07241 10.8744 1.33809 10.1038 0.810471 9.2544C0.282849 8.40503 0.0217576 7.28565 0.0217576 5.9019C0.0217576 4.13565 0.418834 2.87003 1.20755 2.10503C1.99626 1.34003 3.35067 0.951904 5.26534 0.951904C6.42938 0.951904 7.33232 1.03628 7.96873 1.1994C8.25702 1.2669 8.45827 1.36815 8.57794 1.50878C8.69761 1.6494 8.75744 1.86878 8.75744 2.1669V4.64191C8.75744 5.18753 8.43108 5.3844 7.77835 5.23815C7.20177 5.0919 6.58712 5.01315 5.93439 5.01315C5.4394 5.01315 5.09672 5.08628 4.90634 5.23815C4.71596 5.3844 4.61805 5.64316 4.61805 6.00316C4.61805 6.69503 5.22183 7.5219 6.43482 8.47815C7.54989 9.35565 8.34405 10.1769 8.8064 10.9532C9.26875 11.7294 9.50264 12.725 9.50264 13.9513V13.9457Z" fill="black"/>
<path d="M27.3114 11.8195H23.5745V14.5645H27.6432C28.1545 14.5645 28.4101 14.8288 28.4101 15.3576V17.9338C28.4101 18.4626 28.1545 18.727 27.6432 18.727H19.9845C19.4732 18.727 19.2175 18.4626 19.2175 17.9338V1.99259C19.2175 1.46384 19.4732 1.19946 19.9845 1.19946H27.5507C28.062 1.19946 28.3177 1.46384 28.3177 1.99259V4.56884C28.3177 5.09759 28.062 5.36196 27.5507 5.36196H23.5745V7.81446H27.3114C27.8227 7.81446 28.0783 8.07884 28.0783 8.60759V11.032C28.0783 11.5607 27.8227 11.8251 27.3114 11.8251V11.8195Z" fill="black"/>
<path d="M44.2876 7.58378H48.1877C48.699 7.58378 48.9546 7.84815 48.9546 8.3769V16.9438C48.9546 17.5063 48.699 17.9338 48.1877 18.2319C47.8178 18.4457 47.2358 18.6257 46.4416 18.7663C45.642 18.9069 44.8479 18.9744 44.0483 18.9744C42.9495 18.9744 42.0357 18.8507 41.3177 18.6032C40.5997 18.3557 39.9687 17.9057 39.4248 17.2532C38.8808 16.6007 38.4892 15.6725 38.2499 14.4688C38.0105 13.265 37.8909 11.735 37.8909 9.89003C37.8909 8.04503 38.0105 6.56565 38.2499 5.4069C38.4892 4.25378 38.8972 3.34253 39.4846 2.6844C40.0666 2.02628 40.7629 1.57065 41.5679 1.32315C42.3729 1.07565 43.4227 0.951904 44.7173 0.951904C45.8814 0.951904 46.8822 1.07565 47.709 1.32315C48.204 1.4694 48.4488 1.79565 48.4488 2.29065V4.6644C48.4488 5.2269 48.1061 5.4294 47.4207 5.28315C46.6048 5.1369 45.8977 5.05815 45.2885 5.05815C44.0428 5.05815 43.2432 5.35065 42.8951 5.93565C42.5416 6.52065 42.3675 7.8369 42.3675 9.8844C42.3675 11.3357 42.4436 12.4325 42.596 13.175C42.7483 13.9175 42.9713 14.4182 43.265 14.6713C43.5587 14.93 43.9939 15.0538 44.5705 15.0538C44.7772 15.0538 44.9458 15.0313 45.0709 14.9807V11.24H44.2822C43.7709 11.24 43.5152 10.9757 43.5152 10.4469V8.36565C43.5152 7.8369 43.7709 7.57253 44.2822 7.57253L44.2876 7.58378Z" fill="black"/>
<path d="M68.4385 17.7595C67.5791 18.5695 66.2029 18.9745 64.3209 18.9745C62.4389 18.9745 61.0627 18.5695 60.2033 17.7595C59.3438 16.9495 58.9087 15.6163 58.9087 13.7488V1.99259C58.9087 1.46384 59.1643 1.19946 59.6756 1.19946H62.5477C63.059 1.19946 63.3146 1.46384 63.3146 1.99259V13.1076C63.3146 13.7488 63.3853 14.1988 63.5322 14.4463C63.6736 14.6938 63.9401 14.8176 64.3209 14.8176C64.7017 14.8176 64.9682 14.6938 65.1096 14.4463C65.251 14.1988 65.3272 13.7545 65.3272 13.1076V1.99259C65.3272 1.46384 65.5828 1.19946 66.0941 1.19946H68.9661C69.4775 1.19946 69.7331 1.46384 69.7331 1.99259V13.7488C69.7331 15.6163 69.3034 16.9495 68.4385 17.7595Z" fill="black"/>
<path d="M79.8831 17.9338V1.99259C79.8831 1.46384 80.1387 1.19946 80.65 1.19946H83.522C84.0333 1.19946 84.289 1.46384 84.289 1.99259V17.9338C84.289 18.4626 84.0333 18.727 83.522 18.727H80.65C80.1387 18.727 79.8831 18.4626 79.8831 17.9338Z" fill="black"/>
<path d="M98.8883 1.99258V14.5195H101.951C102.462 14.5195 102.718 14.7838 102.718 15.3126V17.9395C102.718 18.4682 102.462 18.7326 101.951 18.7326H95.2494C94.7381 18.7326 94.4824 18.4682 94.4824 17.9395V1.9982C94.4824 1.46945 94.7381 1.20508 95.2494 1.20508H98.1214C98.6327 1.20508 98.8883 1.46945 98.8883 1.9982V1.99258Z" fill="black"/>
<path d="M115.163 1.32315C115.816 1.07565 116.648 0.951904 117.654 0.951904C118.661 0.951904 119.487 1.07565 120.145 1.32315C120.798 1.57065 121.38 2.02065 121.881 2.67315C122.381 3.32565 122.746 4.24253 122.969 5.43503C123.192 6.6219 123.306 8.13503 123.306 9.96315C123.306 11.7913 123.192 13.3044 122.969 14.4913C122.746 15.6782 122.381 16.6007 121.881 17.2532C121.38 17.9057 120.798 18.3557 120.145 18.6032C119.493 18.8507 118.661 18.9744 117.654 18.9744C116.648 18.9744 115.821 18.8507 115.163 18.6032C114.51 18.3557 113.928 17.9057 113.428 17.2532C112.927 16.6007 112.563 15.6838 112.34 14.4913C112.117 13.3044 112.003 11.7913 112.003 9.96315C112.003 8.13503 112.117 6.6219 112.34 5.43503C112.563 4.24815 112.927 3.32565 113.428 2.67315C113.928 2.02065 114.51 1.57065 115.163 1.32315ZM116.909 14.5644C117.067 14.795 117.317 14.9132 117.649 14.9132C117.981 14.9132 118.231 14.795 118.389 14.5644C118.546 14.3338 118.661 13.8782 118.726 13.2032C118.791 12.5282 118.824 11.4482 118.824 9.95753C118.824 8.4669 118.791 7.39253 118.726 6.71753C118.661 6.04253 118.552 5.5869 118.389 5.35628C118.231 5.12565 117.981 5.00753 117.649 5.00753C117.317 5.00753 117.067 5.12565 116.909 5.35628C116.751 5.5869 116.637 6.04253 116.572 6.71753C116.507 7.39253 116.474 8.47253 116.474 9.95753C116.474 11.4425 116.507 12.5225 116.572 13.2032C116.637 13.8782 116.746 14.3338 116.909 14.5644Z" fill="black"/>
<path d="M148.822 1.19946H153.369C153.989 1.19946 154.359 1.49196 154.468 2.07134L157.03 17.8663C157.079 18.1307 157.041 18.3388 156.921 18.4907C156.802 18.6426 156.617 18.7213 156.361 18.7213H153.429C152.967 18.7213 152.7 18.4682 152.619 17.9563L152.309 15.802H149.877L149.567 17.9563C149.486 18.4682 149.219 18.7213 148.757 18.7213H145.825C145.569 18.7213 145.384 18.6426 145.265 18.4851C145.145 18.3276 145.112 18.1195 145.156 17.8551L147.718 2.06009C147.832 1.48634 148.196 1.19946 148.822 1.19946ZM150.171 11.842H152.042L151.166 5.60384H151.047L150.171 11.842Z" fill="black"/>
<path d="M171.037 1.99258V14.5195H174.099C174.61 14.5195 174.866 14.7838 174.866 15.3126V17.9395C174.866 18.4682 174.61 18.7326 174.099 18.7326H167.398C166.886 18.7326 166.631 18.4682 166.631 17.9395V1.9982C166.631 1.46945 166.886 1.20508 167.398 1.20508H170.27C170.781 1.20508 171.037 1.46945 171.037 1.9982V1.99258Z" fill="black"/>
<path d="M200.817 18.727H197.945C197.434 18.727 197.178 18.4626 197.178 17.9338V1.99259C197.178 1.46384 197.434 1.19946 197.945 1.19946H202.063C204.282 1.19946 205.827 1.65509 206.697 2.56071C207.568 3.46634 208.003 5.17634 208.003 7.68509C208.003 10.1938 207.562 11.8532 206.687 12.7588C205.811 13.6645 204.271 14.1201 202.068 14.1201H201.59V17.9338C201.59 18.4626 201.334 18.727 200.823 18.727H200.817ZM201.584 10.0645H202.063C202.699 10.0645 203.102 9.91821 203.271 9.62009C203.439 9.32196 203.521 8.68071 203.521 7.69071C203.521 6.70071 203.439 6.05946 203.271 5.76134C203.102 5.46321 202.699 5.31696 202.063 5.31696H201.584V10.0701V10.0645Z" fill="black"/>
<path d="M220.829 1.32315C221.482 1.07565 222.314 0.951904 223.32 0.951904C224.327 0.951904 225.153 1.07565 225.811 1.32315C226.464 1.57065 227.046 2.02065 227.547 2.67315C228.047 3.32565 228.412 4.24253 228.635 5.43503C228.858 6.6219 228.972 8.13503 228.972 9.96315C228.972 11.7913 228.858 13.3044 228.635 14.4913C228.412 15.6782 228.047 16.6007 227.547 17.2532C227.046 17.9057 226.464 18.3557 225.811 18.6032C225.159 18.8507 224.327 18.9744 223.32 18.9744C222.314 18.9744 221.487 18.8507 220.829 18.6032C220.176 18.3557 219.594 17.9057 219.094 17.2532C218.593 16.6007 218.229 15.6838 218.006 14.4913C217.783 13.3044 217.669 11.7913 217.669 9.96315C217.669 8.13503 217.783 6.6219 218.006 5.43503C218.229 4.24815 218.593 3.32565 219.094 2.67315C219.594 2.02065 220.176 1.57065 220.829 1.32315ZM222.575 14.5644C222.733 14.795 222.983 14.9132 223.315 14.9132C223.647 14.9132 223.897 14.795 224.055 14.5644C224.212 14.3338 224.327 13.8782 224.392 13.2032C224.457 12.5282 224.49 11.4482 224.49 9.95753C224.49 8.4669 224.457 7.39253 224.392 6.71753C224.327 6.04253 224.218 5.5869 224.055 5.35628C223.897 5.12565 223.647 5.00753 223.315 5.00753C222.983 5.00753 222.733 5.12565 222.575 5.35628C222.417 5.5869 222.303 6.04253 222.238 6.71753C222.173 7.39253 222.14 8.47253 222.14 9.95753C222.14 11.4425 222.173 12.5225 222.238 13.2032C222.303 13.8782 222.412 14.3338 222.575 14.5644Z" fill="black"/>
<path d="M243.326 1.99258V14.5195H246.389C246.9 14.5195 247.156 14.7838 247.156 15.3126V17.9395C247.156 18.4682 246.9 18.7326 246.389 18.7326H239.687C239.176 18.7326 238.92 18.4682 238.92 17.9395V1.9982C238.92 1.46945 239.176 1.20508 239.687 1.20508H242.559C243.071 1.20508 243.326 1.46945 243.326 1.9982V1.99258Z" fill="black"/>
<path d="M261.423 1.99258V14.5195H264.486C264.997 14.5195 265.253 14.7838 265.253 15.3126V17.9395C265.253 18.4682 264.997 18.7326 264.486 18.7326H257.784C257.273 18.7326 257.017 18.4682 257.017 17.9395V1.9982C257.017 1.46945 257.273 1.20508 257.784 1.20508H260.656C261.168 1.20508 261.423 1.46945 261.423 1.9982V1.99258Z" fill="black"/>
<path d="M277.703 1.32315C278.356 1.07565 279.188 0.951904 280.195 0.951904C281.201 0.951904 282.028 1.07565 282.686 1.32315C283.338 1.57065 283.921 2.02065 284.421 2.67315C284.921 3.32565 285.286 4.24253 285.509 5.43503C285.732 6.6219 285.846 8.13503 285.846 9.96315C285.846 11.7913 285.732 13.3044 285.509 14.4913C285.286 15.6782 284.921 16.6007 284.421 17.2532C283.921 17.9057 283.338 18.3557 282.686 18.6032C282.033 18.8507 281.201 18.9744 280.195 18.9744C279.188 18.9744 278.361 18.8507 277.703 18.6032C277.051 18.3557 276.469 17.9057 275.968 17.2532C275.468 16.6007 275.103 15.6838 274.88 14.4913C274.657 13.3044 274.543 11.7913 274.543 9.96315C274.543 8.13503 274.657 6.6219 274.88 5.43503C275.103 4.24815 275.468 3.32565 275.968 2.67315C276.469 2.02065 277.051 1.57065 277.703 1.32315ZM279.449 14.5644C279.607 14.795 279.857 14.9132 280.189 14.9132C280.521 14.9132 280.771 14.795 280.929 14.5644C281.087 14.3338 281.201 13.8782 281.266 13.2032C281.331 12.5282 281.364 11.4482 281.364 9.95753C281.364 8.4669 281.331 7.39253 281.266 6.71753C281.201 6.04253 281.092 5.5869 280.929 5.35628C280.771 5.12565 280.521 5.00753 280.189 5.00753C279.857 5.00753 279.607 5.12565 279.449 5.35628C279.292 5.5869 279.177 6.04253 279.112 6.71753C279.047 7.39253 279.014 8.47253 279.014 9.95753C279.014 11.4425 279.047 12.5225 279.112 13.2032C279.177 13.8782 279.286 14.3338 279.449 14.5644Z" fill="black"/>
</svg>
