<svg width="517" height="331" viewBox="0 0 517 331" fill="none" xmlns="http://www.w3.org/2000/svg">
<g clip-path="url(#clip0_1_65)">
<g filter="url(#filter0_d_1_65)">
<path d="M63.2667 77.7951H38.5086V95.417H65.4843C68.8681 95.417 70.5667 97.109 70.5667 100.493V117.003C70.5667 120.387 68.8748 122.079 65.4843 122.079H14.701C11.3173 122.079 9.61865 120.387 9.61865 117.003V14.7838C9.61865 11.3996 11.3105 9.70752 14.701 9.70752H64.8507C68.2345 9.70752 69.9263 11.3996 69.9263 14.7838V31.2933C69.9263 34.6775 68.2345 36.3763 64.8507 36.3763H38.5019V52.0903H63.2599C66.6437 52.0903 68.3356 53.7824 68.3356 57.1666V72.7189C68.3356 76.103 66.6437 77.7951 63.2599 77.7951H63.2667Z" fill="#FFFF00"/>
<path d="M101.674 14.7838V95.1001H121.99C125.374 95.1001 127.066 96.7922 127.066 100.176V117.003C127.066 120.387 125.374 122.079 121.99 122.079H77.55C74.1662 122.079 72.4744 120.387 72.4744 117.003V14.7838C72.4744 11.3996 74.1662 9.70752 77.55 9.70752H96.5988C99.9825 9.70752 101.674 11.3996 101.674 14.7838Z" fill="#FFFF00"/>
<path d="M192.604 95.2552C190.171 95.2552 188.371 93.826 187.205 90.9677L176.575 65.7281V116.996C176.575 120.38 174.883 122.072 171.5 122.072H153.091C149.701 122.072 148.016 120.38 148.016 116.996V14.7838C148.016 11.3996 149.708 9.70752 153.091 9.70752H170.071C173.454 9.70752 175.733 11.0828 176.892 13.8332L192.604 50.3376L208.317 13.8332C209.483 11.0828 211.754 9.70752 215.138 9.70752H232.117C235.501 9.70752 237.2 11.3996 237.2 14.7838V117.003C237.2 120.387 235.508 122.079 232.117 122.079H213.709C210.325 122.079 208.627 120.387 208.627 117.003V65.7348L197.997 90.9744C196.831 93.8327 195.038 95.2619 192.598 95.2619L192.604 95.2552Z" fill="#FFFF00"/>
<path d="M294.333 77.7951H269.575V95.417H296.557C299.941 95.417 301.633 97.109 301.633 100.493V117.003C301.633 120.387 299.941 122.079 296.557 122.079H245.774C242.383 122.079 240.698 120.387 240.698 117.003V14.7838C240.698 11.3996 242.39 9.70752 245.774 9.70752H295.924C299.307 9.70752 301.006 11.3996 301.006 14.7838V31.2933C301.006 34.6775 299.314 36.3763 295.924 36.3763H269.581V52.0903H294.34C297.723 52.0903 299.422 53.7824 299.422 57.1666V72.7189C299.422 76.103 297.723 77.7951 294.34 77.7951H294.333Z" fill="#FFFF00"/>
<path d="M316.873 86.3701V14.7838C316.873 11.3996 318.565 9.70752 321.955 9.70752H340.998C344.381 9.70752 346.08 11.3996 346.08 14.7838V91.925C346.08 103.776 343.882 111.873 339.494 116.207C335.1 120.549 327.88 122.713 317.83 122.713C313.388 122.713 309.31 122.288 305.61 121.445C301.902 120.596 300.055 118.432 300.055 114.94V99.0708C300.055 96.3203 301.538 94.9451 304.497 94.9451C305.131 94.9451 306.162 95.026 307.591 95.181C309.02 95.3428 310.153 95.417 311.002 95.417C313.011 95.417 314.494 94.8102 315.444 93.5901C316.395 92.3766 316.873 89.9632 316.873 86.3701Z" fill="#FFFF00"/>
<path d="M369.557 10.503C373.891 8.91203 379.392 8.12329 386.058 8.12329C392.725 8.12329 398.225 8.91877 402.566 10.503C406.9 12.0872 410.742 14.9725 414.072 19.1521C417.408 23.3318 419.815 29.2304 421.298 36.8482C422.774 44.4659 423.515 54.1464 423.515 65.8966C423.515 77.6468 422.774 87.3273 421.298 94.9451C419.815 102.563 417.408 108.461 414.072 112.641C410.742 116.821 406.907 119.706 402.566 121.29C398.225 122.881 392.725 123.67 386.058 123.67C379.392 123.67 373.891 122.874 369.557 121.29C365.216 119.706 361.381 116.821 358.051 112.641C354.721 108.461 352.308 102.563 350.832 94.9451C349.349 87.3273 348.608 77.6468 348.608 65.8966C348.608 54.1464 349.349 44.4726 350.832 36.8482C352.308 29.2304 354.721 23.3318 358.051 19.1521C361.388 14.9725 365.216 12.0872 369.557 10.503ZM381.144 95.417C382.203 96.9 383.841 97.6416 386.065 97.6416C388.289 97.6416 389.927 96.9 390.985 95.417C392.044 93.9339 392.785 91.0283 393.21 86.6869C393.635 82.3522 393.843 75.4154 393.843 65.8966C393.843 56.3778 393.628 49.441 393.21 45.1063C392.785 40.7649 392.044 37.8594 390.985 36.3763C389.927 34.8932 388.289 34.1516 386.065 34.1516C383.841 34.1516 382.203 34.8932 381.144 36.3763C380.086 37.8594 379.345 40.7649 378.927 45.1063C378.502 49.4477 378.293 56.3778 378.293 65.8966C378.293 75.4154 378.502 82.3522 378.927 86.6869C379.345 91.0283 380.086 93.9339 381.144 95.417Z" fill="#FFFF00"/>
<path d="M431.132 9.70752H459.699C474.406 9.70752 484.692 12.5928 490.57 18.3567C496.441 24.1273 499.38 34.7314 499.38 50.1825C499.38 67.6426 494.197 78.9142 483.83 83.9904L498.113 115.735C500.02 119.969 498.908 122.086 494.783 122.086H475.424C473.416 122.086 471.933 121.796 470.982 121.209C470.032 120.63 469.183 119.436 468.441 117.636L456.854 89.0666H455.263V117.003C455.263 120.387 453.571 122.079 450.188 122.079H431.146C427.762 122.079 426.063 120.387 426.063 117.003V14.7838C426.063 11.3996 427.755 9.70752 431.146 9.70752H431.132ZM455.257 64.3057H459.699C463.824 64.3057 466.52 63.3282 467.794 61.3664C469.061 59.4114 469.695 55.6835 469.695 50.1758C469.695 44.6681 469.061 40.9469 467.794 38.9852C466.527 37.0302 463.824 36.0459 459.699 36.0459H455.257V64.2989V64.3057Z" fill="#FFFF00"/>
<path d="M27.8115 221.898H13.5215C10.9804 221.898 9.71313 220.631 9.71313 218.089V141.393C9.71313 138.851 10.9804 137.584 13.5215 137.584H34.0061C45.0403 137.584 52.7178 139.768 57.0453 144.137C61.3727 148.505 63.5364 156.723 63.5364 168.79C63.5364 180.857 61.3525 188.838 56.9846 193.207C52.6167 197.575 44.9595 199.759 33.9993 199.759H31.6199V218.103C31.6199 220.644 30.3459 221.912 27.8115 221.912V221.898ZM31.6199 180.216H33.9993C37.1741 180.216 39.1761 179.502 40.0119 178.073C40.8477 176.643 41.2589 173.549 41.2589 168.783C41.2589 164.017 40.841 160.923 40.0119 159.493C39.1761 158.064 37.1741 157.35 33.9993 157.35H31.6199V180.216Z" fill="white"/>
<path d="M79.7273 138.177C82.9829 136.984 87.1082 136.391 92.1096 136.391C97.1111 136.391 101.236 136.984 104.492 138.177C107.748 139.371 110.626 141.535 113.127 144.669C115.627 147.804 117.434 152.233 118.546 157.95C119.658 163.666 120.218 170.934 120.218 179.744C120.218 188.555 119.658 195.823 118.546 201.539C117.434 207.256 115.627 211.685 113.127 214.82C110.626 217.954 107.748 220.118 104.492 221.312C101.236 222.505 97.1111 223.098 92.1096 223.098C87.1082 223.098 82.9762 222.505 79.7273 221.312C76.4716 220.118 73.5934 217.961 71.0926 214.82C68.5919 211.685 66.7854 207.256 65.6732 201.539C64.561 195.823 64.0083 188.555 64.0083 179.744C64.0083 170.934 64.561 163.666 65.6732 157.95C66.7854 152.233 68.5919 147.804 71.0926 144.669C73.5934 141.535 76.4716 139.371 79.7273 138.177ZM88.4226 201.896C89.2179 203.009 90.4447 203.562 92.1164 203.562C93.788 203.562 95.0148 203.009 95.8102 201.896C96.6056 200.784 97.1583 198.6 97.4751 195.344C97.7919 192.088 97.9537 186.89 97.9537 179.744C97.9537 172.599 97.7919 167.401 97.4751 164.145C97.1583 160.889 96.5988 158.705 95.8102 157.592C95.0148 156.48 93.788 155.927 92.1164 155.927C90.4447 155.927 89.2179 156.487 88.4226 157.592C87.6272 158.705 87.0745 160.889 86.7577 164.145C86.4408 167.401 86.2858 172.599 86.2858 179.744C86.2858 186.89 86.4408 192.095 86.7577 195.344C87.0745 198.6 87.6339 200.784 88.4226 201.896Z" fill="white"/>
<path d="M144.039 141.393V201.654H159.279C161.82 201.654 163.088 202.921 163.088 205.463V218.089C163.088 220.631 161.814 221.898 159.279 221.898H125.934C123.392 221.898 122.125 220.631 122.125 218.089V141.393C122.125 138.851 123.392 137.584 125.934 137.584H140.224C142.765 137.584 144.032 138.851 144.032 141.393H144.039Z" fill="white"/>
<path d="M186.43 141.393V201.654H201.67C204.212 201.654 205.479 202.921 205.479 205.463V218.089C205.479 220.631 204.212 221.898 201.67 221.898H168.325C165.784 221.898 164.517 220.631 164.517 218.089V141.393C164.517 138.851 165.784 137.584 168.325 137.584H182.615C185.156 137.584 186.423 138.851 186.423 141.393H186.43Z" fill="white"/>
<path d="M219.776 138.177C223.031 136.984 227.156 136.391 232.158 136.391C237.159 136.391 241.285 136.984 244.54 138.177C247.796 139.371 250.674 141.535 253.175 144.669C255.676 147.804 257.482 152.233 258.594 157.95C259.707 163.666 260.259 170.934 260.259 179.744C260.259 188.555 259.7 195.823 258.594 201.539C257.482 207.256 255.676 211.685 253.175 214.82C250.674 217.954 247.796 220.118 244.54 221.312C241.285 222.505 237.159 223.098 232.158 223.098C227.156 223.098 223.031 222.505 219.776 221.312C216.52 220.118 213.642 217.961 211.141 214.82C208.64 211.685 206.834 207.256 205.722 201.539C204.609 195.823 204.057 188.555 204.057 179.744C204.057 170.934 204.609 163.666 205.722 157.95C206.834 152.233 208.64 147.804 211.141 144.669C213.642 141.535 216.52 139.371 219.776 138.177ZM228.471 201.896C229.266 203.009 230.493 203.562 232.165 203.562C233.836 203.562 235.063 203.009 235.859 201.896C236.654 200.784 237.207 198.6 237.523 195.344C237.84 192.088 238.002 186.89 238.002 179.744C238.002 172.599 237.84 167.401 237.523 164.145C237.207 160.889 236.647 158.705 235.859 157.592C235.063 156.48 233.836 155.927 232.165 155.927C230.493 155.927 229.266 156.487 228.471 157.592C227.676 158.705 227.123 160.889 226.806 164.145C226.489 167.401 226.327 172.599 226.327 179.744C226.327 186.89 226.489 192.095 226.806 195.344C227.123 198.6 227.676 200.784 228.471 201.896Z" fill="white"/>
<path d="M315.99 191.771H298.364V217.853C298.364 220.557 297.016 221.905 294.313 221.905H280.501C277.798 221.905 276.45 220.557 276.45 217.853V141.629C276.45 138.932 277.798 137.577 280.501 137.577H316.705C319.246 137.577 320.513 138.845 320.513 141.386V153.77C320.513 156.312 319.239 157.579 316.705 157.579H298.364V171.749H315.99C318.531 171.749 319.799 173.023 319.799 175.558V187.942C319.799 190.483 318.531 191.751 315.99 191.751V191.771Z" fill="white"/>
<path d="M324.8 137.577H346.235C357.269 137.577 364.987 139.741 369.396 144.069C373.804 148.397 376.008 156.359 376.008 167.947C376.008 181.046 372.119 189.506 364.34 193.315L375.058 217.132C376.487 220.307 375.651 221.898 372.557 221.898H358.031C356.521 221.898 355.409 221.682 354.694 221.244C353.98 220.806 353.346 219.916 352.787 218.568L344.092 197.13H342.898V218.089C342.898 220.631 341.631 221.898 339.09 221.898H324.8C322.259 221.898 320.992 220.631 320.992 218.089V141.393C320.992 138.851 322.259 137.584 324.8 137.584V137.577ZM342.898 178.544H346.235C349.329 178.544 351.358 177.81 352.308 176.34C353.259 174.87 353.737 172.073 353.737 167.947C353.737 163.821 353.265 161.024 352.308 159.554C351.351 158.084 349.329 157.35 346.235 157.35H342.898V178.551V178.544Z" fill="white"/>
<path d="M377.194 218.089V141.393C377.194 138.851 378.462 137.584 381.003 137.584H395.293C397.834 137.584 399.101 138.851 399.101 141.393V218.089C399.101 220.631 397.834 221.898 395.293 221.898H381.003C378.462 221.898 377.194 220.631 377.194 218.089Z" fill="white"/>
<path d="M399.822 153.777V141.393C399.822 138.851 401.09 137.584 403.631 137.584H442.214C444.755 137.584 446.022 138.851 446.022 141.393V153.777C446.022 156.318 444.755 157.586 442.214 157.586H433.876V218.089C433.876 220.631 432.608 221.898 430.067 221.898H415.777C413.236 221.898 411.969 220.631 411.969 218.089V157.586H403.631C401.09 157.586 399.822 156.318 399.822 153.777Z" fill="white"/>
<path d="M458.89 138.177C462.146 136.984 466.271 136.391 471.272 136.391C476.274 136.391 480.399 136.984 483.655 138.177C486.91 139.371 489.789 141.535 492.289 144.669C494.79 147.804 496.597 152.233 497.709 157.95C498.821 163.666 499.374 170.934 499.374 179.744C499.374 188.555 498.814 195.823 497.709 201.539C496.597 207.256 494.79 211.685 492.289 214.82C489.789 217.954 486.91 220.118 483.655 221.312C480.399 222.505 476.274 223.098 471.272 223.098C466.271 223.098 462.146 222.505 458.89 221.312C455.634 220.118 452.756 217.961 450.255 214.82C447.754 211.685 445.948 207.256 444.836 201.539C443.724 195.823 443.171 188.555 443.171 179.744C443.171 170.934 443.724 163.666 444.836 157.95C445.948 152.233 447.754 147.804 450.255 144.669C452.756 141.535 455.634 139.371 458.89 138.177ZM467.585 201.896C468.381 203.009 469.607 203.562 471.279 203.562C472.951 203.562 474.177 203.009 474.973 201.896C475.768 200.784 476.321 198.6 476.638 195.344C476.955 192.088 477.116 186.89 477.116 179.744C477.116 172.599 476.955 167.401 476.638 164.145C476.321 160.889 475.761 158.705 474.973 157.592C474.177 156.48 472.951 155.927 471.279 155.927C469.607 155.927 468.381 156.487 467.585 157.592C466.79 158.705 466.237 160.889 465.92 164.145C465.603 167.401 465.442 172.599 465.442 179.744C465.442 186.89 465.603 192.095 465.92 195.344C466.237 198.6 466.79 200.784 467.585 201.896Z" fill="white"/>
<path d="M30.9863 314.268H11.8566C9.48394 314.268 8.29761 313.081 8.29761 310.709V239.082C8.29761 236.709 9.48394 235.522 11.8566 235.522H30.5414C35.8058 235.522 40.2006 236.136 43.7192 237.356C47.2378 238.576 50.2643 240.673 52.7852 243.639C55.3062 246.605 57.1194 250.63 58.2316 255.706C59.3438 260.789 59.9032 267.18 59.9032 274.892C59.9032 285.051 58.8854 293.006 56.843 298.749C54.8006 304.493 51.7472 308.518 47.6691 310.816C43.5911 313.115 38.0302 314.268 30.9863 314.268ZM30.5414 253.98H28.7619V295.803H30.9863C34.1746 295.803 36.3248 294.469 37.437 291.799C38.5492 289.13 39.1086 283.494 39.1086 274.892C39.1086 269.034 38.8121 264.584 38.2189 261.544C37.6257 258.504 36.7562 256.481 35.6036 255.483C34.4509 254.486 32.7658 253.98 30.5414 253.98Z" fill="#FFFF00"/>
<path d="M98.8232 283.231H81.4731V295.574H100.38C102.753 295.574 103.939 296.761 103.939 299.134V310.702C103.939 313.075 102.753 314.261 100.38 314.261H64.7902C62.4175 314.261 61.2312 313.075 61.2312 310.702V239.075C61.2312 236.702 62.4175 235.516 64.7902 235.516H99.9354C102.308 235.516 103.494 236.702 103.494 239.075V250.643C103.494 253.016 102.308 254.203 99.9354 254.203H81.4731V265.211H98.8232C101.196 265.211 102.382 266.398 102.382 268.771V279.671C102.382 282.044 101.196 283.231 98.8232 283.231Z" fill="#FFFF00"/>
<path d="M139.084 239.075V295.352H153.32C155.693 295.352 156.879 296.538 156.879 298.911V310.702C156.879 313.075 155.693 314.261 153.32 314.261H122.179C119.806 314.261 118.62 313.075 118.62 310.702V239.075C118.62 236.702 119.806 235.516 122.179 235.516H135.525C137.898 235.516 139.084 236.702 139.084 239.075Z" fill="#FFFF00"/>
<path d="M172.672 235.516H193.811C196.703 235.516 198.408 236.817 198.927 239.426L210.831 310.405C211.053 311.578 210.885 312.515 210.332 313.216C209.779 313.917 208.91 314.261 207.73 314.261H194.101C191.957 314.261 190.703 313.115 190.333 310.81L188.89 301.136H177.586L176.144 310.81C175.773 313.108 174.519 314.261 172.376 314.261H158.747C157.567 314.261 156.697 313.911 156.145 313.203C155.592 312.502 155.423 311.551 155.646 310.365L167.55 239.385C168.069 236.803 169.774 235.509 172.666 235.509L172.672 235.516ZM178.955 283.332L187.636 283.352L183.565 255.315L183.019 255.295L178.948 283.332H178.955Z" fill="#FFFF00"/>
<path d="M256.633 296.916C259.08 296.916 261.338 296.693 263.421 296.248C266.09 295.803 267.425 296.801 267.425 299.248V309.927C267.425 312.225 266.272 313.634 263.973 314.153C260.414 314.969 256.592 315.374 252.521 315.374C246.96 315.374 242.471 314.834 239.067 313.762C235.656 312.69 232.724 310.634 230.277 307.587C227.831 304.547 226.105 300.394 225.107 295.129C224.103 289.864 223.604 283.008 223.604 274.555C223.604 266.101 224.083 259.522 225.047 254.371C226.011 249.221 227.696 245.142 230.109 242.136C232.515 239.129 235.427 237.093 238.838 236.014C242.249 234.943 246.697 234.403 252.184 234.403C255.447 234.403 259.154 234.774 263.306 235.516C265.679 235.812 266.865 237.221 266.865 239.742V250.529C266.865 252.976 265.53 253.98 262.861 253.535C260.785 253.09 258.601 252.868 256.303 252.868C251.335 252.868 248.113 254.203 246.623 256.872C245.134 259.542 244.399 265.434 244.399 274.555C244.399 281.08 244.749 285.88 245.457 288.961C246.158 292.042 247.324 294.132 248.962 295.244C250.593 296.356 253.148 296.916 256.633 296.916Z" fill="#FFFF00"/>
<path d="M269.197 310.709V239.082C269.197 236.709 270.384 235.522 272.756 235.522H286.103C288.475 235.522 289.662 236.709 289.662 239.082V310.709C289.662 313.081 288.475 314.268 286.103 314.268H272.756C270.384 314.268 269.197 313.081 269.197 310.709Z" fill="#FFFF00"/>
<path d="M336.596 309.927C332.592 313.56 326.216 315.374 317.466 315.374C308.717 315.374 302.341 313.56 298.337 309.927C294.333 306.293 292.331 300.286 292.331 291.907V239.075C292.331 236.702 293.517 235.516 295.89 235.516H309.236C311.609 235.516 312.795 236.702 312.795 239.075V289.015C312.795 291.907 313.125 293.909 313.793 295.021C314.46 296.134 315.687 296.693 317.46 296.693C319.232 296.693 320.466 296.14 321.126 295.021C321.794 293.909 322.124 291.907 322.124 289.015V239.075C322.124 236.702 323.31 235.516 325.683 235.516H339.029C341.402 235.516 342.588 236.702 342.588 239.075V291.907C342.588 300.286 340.586 306.293 336.583 309.927H336.596Z" fill="#FFFF00"/>
<path d="M367.508 314.268H348.378C346.006 314.268 344.819 313.081 344.819 310.709V239.082C344.819 236.709 346.006 235.522 348.378 235.522H367.063C372.328 235.522 376.722 236.136 380.241 237.356C383.759 238.576 386.786 240.673 389.307 243.639C391.828 246.605 393.641 250.63 394.753 255.706C395.866 260.789 396.425 267.18 396.425 274.892C396.425 285.051 395.407 293.006 393.365 298.749C391.322 304.493 388.269 308.518 384.191 310.816C380.113 313.115 374.552 314.268 367.508 314.268ZM367.063 253.98H365.284V295.803H367.508C370.696 295.803 372.847 294.469 373.959 291.799C375.071 289.13 375.63 283.494 375.63 274.892C375.63 269.034 375.334 264.584 374.741 261.544C374.147 258.504 373.278 256.481 372.125 255.483C370.973 254.486 369.288 253.98 367.063 253.98Z" fill="#FFFF00"/>
<path d="M411.328 235.516H432.467C435.359 235.516 437.064 236.817 437.583 239.426L449.487 310.405C449.709 311.578 449.541 312.515 448.988 313.216C448.435 313.917 447.566 314.261 446.386 314.261H432.757C430.613 314.261 429.359 313.115 428.989 310.81L427.546 301.136H416.242L414.8 310.81C414.429 313.108 413.175 314.261 411.032 314.261H397.403C396.223 314.261 395.353 313.911 394.801 313.203C394.248 312.502 394.079 311.551 394.302 310.365L406.206 239.385C406.725 236.803 408.43 235.509 411.322 235.509L411.328 235.516ZM417.611 283.332L426.293 283.352L422.221 255.315L421.675 255.295L417.604 283.332H417.611Z" fill="#FFFF00"/>
<path d="M472.27 314.268H453.14C450.767 314.268 449.581 313.081 449.581 310.709V239.082C449.581 236.709 450.767 235.522 453.14 235.522H471.825C477.089 235.522 481.484 236.136 485.003 237.356C488.521 238.576 491.548 240.673 494.069 243.639C496.59 246.605 498.403 250.63 499.515 255.706C500.627 260.789 501.187 267.18 501.187 274.892C501.187 285.051 500.169 293.006 498.126 298.749C496.084 304.493 493.031 308.518 488.953 310.816C484.875 313.115 479.314 314.268 472.27 314.268ZM471.825 253.98H470.045V295.803H472.27C475.458 295.803 477.608 294.469 478.72 291.799C479.833 289.13 480.392 283.494 480.392 274.892C480.392 269.034 480.096 264.584 479.502 261.544C478.909 258.504 478.04 256.481 476.887 255.483C475.734 254.486 474.049 253.98 471.825 253.98Z" fill="#FFFF00"/>
</g>
</g>
<defs>
<filter id="filter0_d_1_65" x="2.61761" y="2.44329" width="515.609" height="329.97" filterUnits="userSpaceOnUse" color-interpolation-filters="sRGB">
<feFlood flood-opacity="0" result="BackgroundImageFix"/>
<feColorMatrix in="SourceAlpha" type="matrix" values="0 0 0 0 0 0 0 0 0 0 0 0 0 0 0 0 0 0 127 0" result="hardAlpha"/>
<feOffset dx="5.68" dy="5.68"/>
<feGaussianBlur stdDeviation="5.68"/>
<feColorMatrix type="matrix" values="0 0 0 0 0 0 0 0 0 0 0 0 0 0 0 0 0 0 0.75 0"/>
<feBlend mode="normal" in2="BackgroundImageFix" result="effect1_dropShadow_1_65"/>
<feBlend mode="normal" in="SourceGraphic" in2="effect1_dropShadow_1_65" result="shape"/>
</filter>
<clipPath id="clip0_1_65">
<rect width="517" height="331" fill="white"/>
</clipPath>
</defs>
</svg>
