<svg width="32" height="33" viewBox="0 0 32 33" fill="none" xmlns="http://www.w3.org/2000/svg">
<g id="Capa_1" clip-path="url(#clip0_4_230)">
<path id="Vector" d="M15.5162 0C16.0035 0 16.4838 0 16.9711 0C17.1265 0.0288398 17.2889 0.0720996 17.4443 0.0793096C19.5559 0.201879 21.5546 0.785886 23.4262 1.77365C30.9053 5.73192 34.0128 14.7083 30.6511 22.5888C27.0633 31.01 17.0205 34.5862 8.98345 30.3035C8.70801 30.1593 8.48907 30.1737 8.22776 30.2602C6.00309 30.9956 3.77135 31.7166 1.53962 32.452C1.04524 32.6179 0.564997 32.8125 0.077687 33H0C0.0211874 32.863 0.0282498 32.726 0.0635621 32.5962C0.925182 29.979 1.77974 27.3618 2.65548 24.7518C2.7473 24.4778 2.71905 24.2759 2.58486 24.0236C-0.0423747 19.0776 -0.254249 14.009 2.17524 8.96198C4.45641 4.23225 8.24895 1.36989 13.3198 0.310028C14.0402 0.158619 14.7817 0.100939 15.5162 0ZM4.01854 28.8471C4.20922 28.7966 4.31516 28.7822 4.41404 28.7461C5.84065 28.2847 7.26021 27.8305 8.67976 27.3546C8.9552 27.2609 9.14588 27.2969 9.38601 27.4483C12.9879 29.6474 16.8087 30.1088 20.7424 28.6236C28.1086 25.8477 31.3997 17.4842 28.0521 10.2381C24.9729 3.57614 16.8016 0.749836 10.3677 4.1241C3.46767 7.7435 1.07349 16.3306 5.12734 23.0791C5.53697 23.7568 5.56522 24.2904 5.30391 24.9897C4.83778 26.2298 4.45641 27.506 4.01854 28.8471Z" fill="black"/>
<path id="Vector_2" d="M11.3281 8.24815C11.5329 8.25536 11.6954 8.26978 11.8578 8.26978C12.1968 8.26978 12.4369 8.4284 12.5499 8.73843C12.9949 9.91365 13.4398 11.0961 13.8494 12.2857C13.913 12.4588 13.8494 12.74 13.7364 12.8986C13.4327 13.3456 13.0867 13.771 12.7265 14.1747C12.4581 14.4703 12.3945 14.7299 12.5852 15.0904C13.8141 17.3832 15.5797 19.0847 17.9386 20.1374C18.2493 20.2744 18.5036 20.2527 18.7366 19.9788C19.1392 19.5029 19.5629 19.0415 19.9584 18.5512C20.2974 18.133 20.474 18.0393 20.926 18.27C22.0065 18.8252 23.0659 19.4164 24.1394 19.9932C24.4713 20.1734 24.4572 20.469 24.429 20.7791C24.2736 22.4806 23.4826 23.3963 21.491 23.9659C20.1703 24.3408 19.0121 23.7784 17.8185 23.3458C14.3297 22.0913 11.9072 19.5894 9.97212 16.4891C9.29412 15.4004 8.67262 14.2973 8.47488 13.0067C8.19944 11.2259 8.73619 9.72619 10.0781 8.54376C10.4524 8.2121 10.9044 8.16163 11.3281 8.22652V8.24815Z" fill="black"/>
</g>
<defs>
<clipPath id="clip0_4_230">
<rect width="32" height="33" fill="white"/>
</clipPath>
</defs>
</svg>
